StickSans_Thin.ufo
<glyph name="exclam" format="2">
  <advance width="173"/>
  <unicode hex="0021"/>
  <outline>
    <contour>
      <point x="78" y="185" type="line"/>
      <point x="96" y="185" type="line"/>
      <point x="98" y="697" type="line"/>
      <point x="77" y="697" type="line"/>
    </contour>
    <contour>
      <point x="73" y="0" type="line"/>
      <point x="100" y="0" type="line"/>
      <point x="100" y="91" type="line"/>
      <point x="73" y="91" type="line"/>
    </contour>
  </outline>
</glyph>
<glyph name="numbersign" format="2">
  <advance width="668"/>
  <unicode hex="0023"/>
  <outline>
    <contour>
      <point x="132" y="0" type="line"/>
      <point x="150" y="0" type="line"/>
      <point x="194" y="218" type="line"/>
      <point x="412" y="218" type="line"/>
      <point x="367" y="0" type="line"/>
      <point x="385" y="0" type="line"/>
      <point x="430" y="218" type="line"/>
      <point x="577" y="218" type="line"/>
      <point x="577" y="234" type="line"/>
      <point x="433" y="234" type="line"/>
      <point x="483" y="477" type="line"/>
      <point x="620" y="477" type="line"/>
      <point x="620" y="494" type="line"/>
      <point x="487" y="494" type="line"/>
      <point x="529" y="697" type="line"/>
      <point x="510" y="697" type="line"/>
      <point x="468" y="494" type="line"/>
      <point x="252" y="494" type="line"/>
      <point x="293" y="697" type="line"/>
      <point x="275" y="697" type="line"/>
      <point x="233" y="494" type="line"/>
      <point x="90" y="494" type="line"/>
      <point x="90" y="477" type="line"/>
      <point x="230" y="477" type="line"/>
      <point x="180" y="234" type="line"/>
      <point x="47" y="234" type="line"/>
      <point x="47" y="218" type="line"/>
      <point x="177" y="218" type="line"/>
    </contour>
    <contour>
      <point x="198" y="234" type="line"/>
      <point x="248" y="477" type="line"/>
      <point x="465" y="477" type="line"/>
      <point x="415" y="234" type="line"/>
    </contour>
  </outline>
</glyph>
<glyph name="dollar" format="2">
  <advance width="539"/>
  <unicode hex="0024"/>
  <outline>
    <contour>
      <point x="283" y="-112" type="line"/>
      <point x="293" y="-112" type="line"/>
      <point x="293" y="0" type="line"/>
      <point x="283" y="0" type="line"/>
    </contour>
    <contour>
      <point x="276" y="697" type="line"/>
      <point x="286" y="697" type="line"/>
      <point x="286" y="808" type="line"/>
      <point x="276" y="808" type="line"/>
    </contour>
    <component base="S" xOffset="-1"/>
  </outline>
</glyph>
<glyph name="quotesingle" format="2">
  <advance width="178"/>
  <unicode hex="0027"/>
  <outline>
    <contour>
      <point x="80" y="419" type="line"/>
      <point x="98" y="419" type="line"/>
      <point x="98" y="697" type="line"/>
      <point x="80" y="697" type="line"/>
    </contour>
  </outline>
</glyph>
<glyph name="parenleft" format="2">
  <advance width="162"/>
  <unicode hex="0028"/>
  <outline>
    <contour>
      <point x="137" y="-204" type="curve"/>
      <point x="159" y="-204" type="line"/>
      <point x="85" y="-96"/>
      <point x="43" y="111"/>
      <point x="43" y="245" type="curve" smooth="yes"/>
      <point x="43" y="385"/>
      <point x="77" y="569"/>
      <point x="159" y="697" type="curve"/>
      <point x="138" y="697" type="line"/>
      <point x="57" y="567"/>
      <point x="25" y="385"/>
      <point x="25" y="245" type="curve" smooth="yes"/>
      <point x="25" y="112"/>
      <point x="65" y="-92"/>
    </contour>
  </outline>
</glyph>
<glyph name="asterisk" format="2">
  <advance width="368"/>
  <unicode hex="002A"/>
  <outline>
    <contour>
      <point x="99" y="417" type="line"/>
      <point x="184" y="532" type="line"/>
      <point x="270" y="417" type="line"/>
      <point x="280" y="424" type="line"/>
      <point x="195" y="540" type="line"/>
      <point x="331" y="587" type="line"/>
      <point x="328" y="598" type="line"/>
      <point x="191" y="553" type="line"/>
      <point x="191" y="697" type="line"/>
      <point x="178" y="697" type="line"/>
      <point x="177" y="553" type="line"/>
      <point x="42" y="598" type="line"/>
      <point x="37" y="587" type="line"/>
      <point x="173" y="540" type="line"/>
      <point x="89" y="424" type="line"/>
    </contour>
  </outline>
</glyph>
<glyph name="plus" format="2">
  <advance width="561"/>
  <unicode hex="002B"/>
  <guideline x="1814" y="505" angle="0" name=""/>
  <guideline x="1808" y="484" angle="0" name=""/>
  <outline>
    <contour>
      <point x="271" y="17" type="line"/>
      <point x="289" y="17" type="line"/>
      <point x="289" y="238" type="line"/>
      <point x="511" y="238" type="line"/>
      <point x="511" y="256" type="line"/>
      <point x="289" y="256" type="line"/>
      <point x="289" y="477" type="line"/>
      <point x="271" y="477" type="line"/>
      <point x="271" y="256" type="line"/>
      <point x="50" y="256" type="line"/>
      <point x="50" y="238" type="line"/>
      <point x="271" y="238" type="line"/>
    </contour>
  </outline>
</glyph>
<glyph name="hyphen" format="2">
  <advance width="327"/>
  <unicode hex="002D"/>
  <outline>
    <contour>
      <point x="40" y="308" type="line"/>
      <point x="288" y="308" type="line"/>
      <point x="288" y="325" type="line"/>
      <point x="40" y="325" type="line"/>
    </contour>
  </outline>
</glyph>
<glyph name="slash" format="2">
  <advance width="364"/>
  <unicode hex="002F"/>
  <outline>
    <contour>
      <point x="-42" y="-209" type="line"/>
      <point x="-23" y="-209" type="line"/>
      <point x="327" y="697" type="line"/>
      <point x="308" y="697" type="line"/>
    </contour>
  </outline>
</glyph>
<glyph name="one" format="2">
  <advance width="560"/>
  <unicode hex="0031"/>
  <outline>
    <contour>
      <point x="322" y="0" type="line"/>
      <point x="342" y="0" type="line"/>
      <point x="342" y="697" type="line"/>
      <point x="322" y="697" type="line"/>
      <point x="135" y="582" type="line"/>
      <point x="135" y="564" type="line"/>
      <point x="322" y="676" type="line"/>
      <point x="322" y="578" type="line"/>
    </contour>
  </outline>
</glyph>
<glyph name="two" format="2">
  <advance width="560"/>
  <unicode hex="0032"/>
  <outline>
    <contour>
      <point x="62" y="0" type="line"/>
      <point x="501" y="0" type="line"/>
      <point x="501" y="19" type="line"/>
      <point x="80" y="19" type="line"/>
      <point x="84" y="373"/>
      <point x="472" y="248.64215188603254"/>
      <point x="472" y="507" type="curve" smooth="yes"/>
      <point x="472" y="627"/>
      <point x="396" y="702"/>
      <point x="275" y="702" type="curve" smooth="yes"/>
      <point x="143" y="702"/>
      <point x="69" y="618"/>
      <point x="69" y="479" type="curve"/>
      <point x="89" y="479" type="line"/>
      <point x="89" y="606"/>
      <point x="155" y="683"/>
      <point x="275" y="683" type="curve" smooth="yes"/>
      <point x="386" y="683"/>
      <point x="451" y="615"/>
      <point x="452" y="506" type="curve" smooth="yes"/>
      <point x="453" y="267"/>
      <point x="62" y="380"/>
      <point x="62" y="30" type="curve"/>
    </contour>
  </outline>
</glyph>
<glyph name="four" format="2">
  <advance width="560"/>
  <unicode hex="0034"/>
  <outline>
    <contour>
      <point x="399" y="0" type="line"/>
      <point x="419" y="0" type="line"/>
      <point x="419" y="169" type="line"/>
      <point x="535" y="169" type="line"/>
      <point x="535" y="188" type="line"/>
      <point x="419" y="188" type="line"/>
      <point x="419" y="697" type="line"/>
      <point x="393" y="697" type="line"/>
      <point x="29" y="190" type="line"/>
      <point x="29" y="169" type="line"/>
      <point x="399" y="169" type="line"/>
    </contour>
    <contour>
      <point x="45" y="180" type="line"/>
      <point x="399" y="675" type="line"/>
      <point x="399" y="676" type="line"/>
      <point x="399" y="188" type="line"/>
      <point x="43" y="188" type="line"/>
    </contour>
  </outline>
</glyph>
<glyph name="five" format="2">
  <advance width="560"/>
  <unicode hex="0035"/>
  <outline>
    <contour>
      <point x="280" y="-5" type="curve" smooth="yes"/>
      <point x="410" y="-5"/>
      <point x="508" y="99"/>
      <point x="508" y="229" type="curve" smooth="yes"/>
      <point x="508" y="358"/>
      <point x="418" y="455"/>
      <point x="294" y="455" type="curve" smooth="yes"/>
      <point x="223" y="455"/>
      <point x="154" y="420"/>
      <point x="104" y="354" type="curve"/>
      <point x="103" y="357" type="line"/>
      <point x="158" y="686" type="line"/>
      <point x="147" y="678" type="line"/>
      <point x="474" y="678" type="line"/>
      <point x="474" y="697" type="line"/>
      <point x="140" y="697" type="line"/>
      <point x="80" y="345" type="line"/>
      <point x="109" y="334" type="line"/>
      <point x="157" y="402"/>
      <point x="224" y="434"/>
      <point x="293" y="434" type="curve" smooth="yes"/>
      <point x="406" y="434"/>
      <point x="488" y="348"/>
      <point x="488" y="229" type="curve" smooth="yes"/>
      <point x="488" y="109"/>
      <point x="399" y="14"/>
      <point x="280" y="14" type="curve" smooth="yes"/>
      <point x="178" y="14"/>
      <point x="99" y="83"/>
      <point x="77" y="188" type="curve"/>
      <point x="57" y="185" type="line"/>
      <point x="82" y="69"/>
      <point x="170" y="-5"/>
    </contour>
  </outline>
</glyph>
<glyph name="seven" format="2">
  <advance width="560"/>
  <unicode hex="0037"/>
  <outline>
    <contour>
      <point x="135" y="0" type="line"/>
      <point x="157" y="0" type="line"/>
      <point x="525" y="673" type="line"/>
      <point x="525" y="697" type="line"/>
      <point x="30" y="697" type="line"/>
      <point x="30" y="678" type="line"/>
      <point x="508" y="678" type="line"/>
      <point x="505" y="677" type="line"/>
    </contour>
  </outline>
</glyph>
<glyph name="nine" format="2">
  <advance width="561"/>
  <unicode hex="0039"/>
  <outline>
    <contour>
      <point x="234" y="0" type="line"/>
      <point x="255" y="0" type="line"/>
      <point x="466" y="363" type="line" smooth="yes"/>
      <point x="485" y="396"/>
      <point x="501" y="432"/>
      <point x="501" y="483" type="curve" smooth="yes"/>
      <point x="501" y="604"/>
      <point x="401" y="702"/>
      <point x="279" y="702" type="curve" smooth="yes"/>
      <point x="157" y="702"/>
      <point x="58" y="603"/>
      <point x="58" y="482" type="curve" smooth="yes"/>
      <point x="58" y="361"/>
      <point x="158" y="262"/>
      <point x="278" y="262" type="curve" smooth="yes"/>
      <point x="332" y="262"/>
      <point x="382" y="283"/>
      <point x="421" y="317" type="curve"/>
      <point x="419" y="321" type="line"/>
    </contour>
    <contour>
      <point x="279" y="280" type="curve" smooth="yes"/>
      <point x="169" y="280"/>
      <point x="78" y="371"/>
      <point x="78" y="481" type="curve" smooth="yes"/>
      <point x="78" y="593"/>
      <point x="169" y="683"/>
      <point x="279" y="683" type="curve" smooth="yes"/>
      <point x="390" y="683"/>
      <point x="480" y="594"/>
      <point x="480" y="482" type="curve" smooth="yes"/>
      <point x="480" y="370"/>
      <point x="388" y="280"/>
    </contour>
  </outline>
</glyph>
<glyph name="equal" format="2">
  <advance width="560"/>
  <unicode hex="003D"/>
  <outline>
    <contour>
      <point x="96" y="324" type="line"/>
      <point x="465" y="324" type="line"/>
      <point x="465" y="342" type="line"/>
      <point x="96" y="342" type="line"/>
    </contour>
    <contour>
      <point x="96" y="152" type="line"/>
      <point x="465" y="152" type="line"/>
      <point x="465" y="169" type="line"/>
      <point x="96" y="169" type="line"/>
    </contour>
  </outline>
</glyph>
<glyph name="at" format="2">
  <advance width="837"/>
  <unicode hex="0040"/>
  <outline>
    <contour>
      <point x="420" y="-99" type="curve" smooth="yes"/>
      <point x="480" y="-99"/>
      <point x="540" y="-84"/>
      <point x="591" y="-54" type="curve"/>
      <point x="584" y="-39" type="line"/>
      <point x="530" y="-67"/>
      <point x="475" y="-82"/>
      <point x="419" y="-82" type="curve" smooth="yes"/>
      <point x="235" y="-82"/>
      <point x="77" y="62"/>
      <point x="77" y="261" type="curve" smooth="yes"/>
      <point x="77" y="459"/>
      <point x="234" y="603"/>
      <point x="419" y="603" type="curve" smooth="yes"/>
      <point x="610" y="603"/>
      <point x="761" y="448"/>
      <point x="761" y="251" type="curve" smooth="yes"/>
      <point x="761" y="148"/>
      <point x="732" y="78"/>
      <point x="662" y="78" type="curve" smooth="yes"/>
      <point x="614" y="78"/>
      <point x="594" y="102"/>
      <point x="594" y="152" type="curve" smooth="yes"/>
      <point x="594" y="448" type="line"/>
      <point x="577" y="448" type="line"/>
      <point x="576" y="339" type="line"/>
      <point x="573" y="338" type="line"/>
      <point x="550" y="413"/>
      <point x="487" y="457"/>
      <point x="414" y="457" type="curve" smooth="yes"/>
      <point x="315" y="457"/>
      <point x="233" y="377"/>
      <point x="233" y="257" type="curve" smooth="yes"/>
      <point x="233" y="136"/>
      <point x="315" y="59"/>
      <point x="414" y="59" type="curve" smooth="yes"/>
      <point x="474" y="59"/>
      <point x="544" y="90"/>
      <point x="578" y="179" type="curve"/>
      <point x="577" y="184" type="line"/>
      <point x="577" y="147" type="line" smooth="yes"/>
      <point x="577" y="102"/>
      <point x="595" y="61"/>
      <point x="660" y="61" type="curve" smooth="yes"/>
      <point x="747" y="61"/>
      <point x="778" y="145"/>
      <point x="778" y="251" type="curve" smooth="yes"/>
      <point x="778" y="455"/>
      <point x="623" y="620"/>
      <point x="420" y="620" type="curve" smooth="yes"/>
      <point x="223" y="620"/>
      <point x="60" y="467"/>
      <point x="60" y="262" type="curve" smooth="yes"/>
      <point x="60" y="52"/>
      <point x="225" y="-99"/>
    </contour>
    <contour>
      <point x="415" y="76" type="curve" smooth="yes"/>
      <point x="323" y="76"/>
      <point x="252" y="152"/>
      <point x="252" y="257" type="curve" smooth="yes"/>
      <point x="252" y="362"/>
      <point x="323" y="440"/>
      <point x="415" y="440" type="curve" smooth="yes"/>
      <point x="508" y="440"/>
      <point x="576" y="365"/>
      <point x="576" y="257" type="curve" smooth="yes"/>
      <point x="576" y="149"/>
      <point x="507" y="76"/>
    </contour>
  </outline>
</glyph>
<glyph name="A" format="2">
  <advance width="584"/>
  <unicode hex="0041"/>
  <anchor x="292" y="0" name="bottom"/>
  <anchor x="546" y="0" name="ogonek"/>
  <anchor x="292" y="697" name="top"/>
  <outline>
    <contour>
      <point x="36" y="0" type="line"/>
      <point x="59" y="0" type="line"/>
      <point x="292" y="675" type="line"/>
      <point x="525" y="0" type="line"/>
      <point x="548" y="0" type="line"/>
      <point x="304" y="697" type="line"/>
      <point x="279" y="697" type="line"/>
    </contour>
    <contour>
      <point x="124" y="208" type="line"/>
      <point x="460" y="208" type="line"/>
      <point x="453" y="227" type="line"/>
      <point x="131" y="227" type="line"/>
    </contour>
  </outline>
</glyph>
<glyph name="C" format="2">
  <advance width="696"/>
  <unicode hex="0043"/>
  <anchor x="368" y="0" name="bottom"/>
  <anchor x="368" y="697" name="top"/>
  <outline>
    <contour>
      <point x="373" y="-6" type="curve" smooth="yes"/>
      <point x="500" y="-6"/>
      <point x="598" y="61"/>
      <point x="641" y="172" type="curve"/>
      <point x="623" y="179" type="line"/>
      <point x="584" y="80"/>
      <point x="498" y="14"/>
      <point x="373" y="14" type="curve" smooth="yes"/>
      <point x="199" y="14"/>
      <point x="88" y="144"/>
      <point x="88" y="349" type="curve" smooth="yes"/>
      <point x="88" y="552"/>
      <point x="199" y="683"/>
      <point x="373" y="683" type="curve" smooth="yes"/>
      <point x="498" y="683"/>
      <point x="584" y="617"/>
      <point x="623" y="518" type="curve"/>
      <point x="641" y="525" type="line"/>
      <point x="598" y="636"/>
      <point x="501" y="703"/>
      <point x="373" y="703" type="curve" smooth="yes"/>
      <point x="188" y="703"/>
      <point x="68" y="563"/>
      <point x="68" y="349" type="curve" smooth="yes"/>
      <point x="68" y="135"/>
      <point x="188" y="-6"/>
    </contour>
  </outline>
</glyph>
<glyph name="H" format="2">
  <advance width="651"/>
  <unicode hex="0048"/>
  <anchor x="326" y="0" name="bottom"/>
  <anchor x="326" y="539" name="center"/>
  <anchor x="326" y="697" name="top"/>
  <anchor x="-7" y="697" name="topleft"/>
  <outline>
    <contour>
      <point x="97" y="0" type="line"/>
      <point x="117" y="0" type="line"/>
      <point x="117" y="344" type="line"/>
      <point x="533" y="344" type="line"/>
      <point x="533" y="0" type="line"/>
      <point x="554" y="0" type="line"/>
      <point x="554" y="697" type="line"/>
      <point x="533" y="697" type="line"/>
      <point x="533" y="363" type="line"/>
      <point x="117" y="363" type="line"/>
      <point x="117" y="697" type="line"/>
      <point x="97" y="697" type="line"/>
    </contour>
  </outline>
</glyph>
<glyph name="I" format="2">
  <advance width="214"/>
  <unicode hex="0049"/>
  <anchor x="107" y="0" name="bottom"/>
  <anchor x="117" y="0" name="ogonek"/>
  <anchor x="107" y="697" name="top"/>
  <anchor x="-8" y="697" name="topleft"/>
  <outline>
    <contour>
      <point x="97" y="0" type="line"/>
      <point x="117" y="0" type="line"/>
      <point x="117" y="697" type="line"/>
      <point x="97" y="697" type="line"/>
    </contour>
  </outline>
</glyph>
<glyph name="J" format="2">
  <advance width="549"/>
  <unicode hex="004A"/>
  <anchor x="280" y="0" name="bottom"/>
  <anchor x="299" y="697" name="top"/>
  <outline>
    <contour>
      <point x="254" y="-6" type="curve" smooth="yes"/>
      <point x="388" y="-6"/>
      <point x="459" y="86"/>
      <point x="459" y="256" type="curve" smooth="yes"/>
      <point x="459" y="697" type="line"/>
      <point x="439" y="697" type="line"/>
      <point x="439" y="678" type="line"/>
      <point x="439" y="678" type="line"/>
      <point x="439" y="256" type="line" smooth="yes"/>
      <point x="439" y="97"/>
      <point x="376" y="14"/>
      <point x="254" y="14" type="curve" smooth="yes"/>
      <point x="143" y="14"/>
      <point x="70" y="81"/>
      <point x="62" y="194" type="curve"/>
      <point x="42" y="193" type="line"/>
      <point x="51" y="69"/>
      <point x="132" y="-6"/>
    </contour>
  </outline>
</glyph>
<glyph name="K" format="2">
  <advance width="590"/>
  <unicode hex="004B"/>
  <anchor x="294" y="0" name="bottom"/>
  <anchor x="294" y="697" name="top"/>
  <outline>
    <contour>
      <point x="111" y="241" type="line"/>
      <point x="551" y="697" type="line"/>
      <point x="523" y="697" type="line"/>
      <point x="111" y="269" type="line"/>
    </contour>
    <contour>
      <point x="97" y="0" type="line"/>
      <point x="117" y="0" type="line"/>
      <point x="117" y="697" type="line"/>
      <point x="97" y="697" type="line"/>
    </contour>
    <contour>
      <point x="530" y="0" type="line"/>
      <point x="554" y="0" type="line"/>
      <point x="283" y="428" type="line"/>
      <point x="268" y="414" type="line"/>
    </contour>
  </outline>
</glyph>
<glyph name="L" format="2">
  <advance width="480"/>
  <unicode hex="004C"/>
  <anchor x="271" y="0" name="bottom"/>
  <anchor x="168" y="375" name="center"/>
  <anchor x="107" y="697" name="top"/>
  <anchor x="389" y="493" name="topright"/>
  <outline>
    <contour>
      <point x="97" y="0" type="line"/>
      <point x="454" y="0" type="line"/>
      <point x="454" y="19" type="line"/>
      <point x="117" y="19" type="line"/>
      <point x="117" y="697" type="line"/>
      <point x="97" y="697" type="line"/>
    </contour>
  </outline>
</glyph>
<glyph name="M" format="2">
  <advance width="807"/>
  <unicode hex="004D"/>
  <anchor x="404" y="0" name="bottom"/>
  <anchor x="404" y="697" name="top"/>
  <outline>
    <contour>
      <point x="97" y="0" type="line"/>
      <point x="117" y="0" type="line"/>
      <point x="117" y="675" type="line"/>
      <point x="118" y="675" type="line"/>
      <point x="393" y="213" type="line"/>
      <point x="414" y="213" type="line"/>
      <point x="689" y="675" type="line"/>
      <point x="690" y="675" type="line"/>
      <point x="690" y="0" type="line"/>
      <point x="710" y="0" type="line"/>
      <point x="710" y="697" type="line"/>
      <point x="678" y="697" type="line"/>
      <point x="401" y="230" type="line"/>
      <point x="407" y="230" type="line"/>
      <point x="130" y="697" type="line"/>
      <point x="97" y="697" type="line"/>
    </contour>
  </outline>
</glyph>
<glyph name="N" format="2">
  <advance width="650"/>
  <unicode hex="004E"/>
  <anchor x="317" y="0" name="bottom"/>
  <anchor x="317" y="697" name="top"/>
  <outline>
    <contour>
      <point x="97" y="0" type="line"/>
      <point x="117" y="0" type="line"/>
      <point x="117" y="673" type="line"/>
      <point x="116" y="673" type="line"/>
      <point x="524" y="0" type="line"/>
      <point x="553" y="0" type="line"/>
      <point x="553" y="697" type="line"/>
      <point x="533" y="697" type="line"/>
      <point x="533" y="24" type="line"/>
      <point x="533" y="24" type="line"/>
      <point x="125" y="697" type="line"/>
      <point x="97" y="697" type="line"/>
    </contour>
  </outline>
</glyph>
<glyph name="R" format="2">
  <advance width="577"/>
  <unicode hex="0052"/>
  <anchor x="281" y="0" name="bottom"/>
  <anchor x="281" y="697" name="top"/>
  <outline>
    <contour>
      <point x="97" y="0" type="line"/>
      <point x="117" y="0" type="line"/>
      <point x="117" y="286" type="line"/>
      <point x="262" y="286" type="line" smooth="yes"/>
      <point x="279" y="286"/>
      <point x="304" y="287"/>
      <point x="321" y="289" type="curve"/>
      <point x="433" y="306"/>
      <point x="491" y="391"/>
      <point x="491" y="491" type="curve" smooth="yes"/>
      <point x="491" y="610"/>
      <point x="412" y="697"/>
      <point x="268" y="697" type="curve" smooth="yes"/>
      <point x="97" y="697" type="line"/>
    </contour>
    <contour>
      <point x="504" y="0" type="line"/>
      <point x="527" y="0" type="line"/>
      <point x="334" y="295" type="line"/>
      <point x="313" y="292" type="line"/>
    </contour>
    <contour>
      <point x="117" y="305" type="line"/>
      <point x="117" y="678" type="line"/>
      <point x="267" y="678" type="line" smooth="yes"/>
      <point x="396" y="678"/>
      <point x="471" y="600"/>
      <point x="471" y="491" type="curve" smooth="yes"/>
      <point x="471" y="384"/>
      <point x="398" y="305"/>
      <point x="267" y="305" type="curve" smooth="yes"/>
    </contour>
  </outline>
</glyph>
<glyph name="U" format="2">
  <advance width="649"/>
  <unicode hex="0055"/>
  <anchor x="324" y="0" name="bottom"/>
  <anchor x="380" y="0" name="ogonek"/>
  <anchor x="324" y="697" name="top"/>
  <anchor x="615" y="493" name="topright"/>
  <outline>
    <contour>
      <point x="323" y="-6" type="curve" smooth="yes"/>
      <point x="475" y="-6"/>
      <point x="560" y="88"/>
      <point x="560" y="257" type="curve" smooth="yes"/>
      <point x="560" y="697" type="line"/>
      <point x="540" y="697" type="line"/>
      <point x="540" y="258" type="line" smooth="yes"/>
      <point x="540" y="101"/>
      <point x="464" y="14"/>
      <point x="323" y="14" type="curve" smooth="yes"/>
      <point x="183" y="14"/>
      <point x="109" y="99"/>
      <point x="109" y="253" type="curve" smooth="yes"/>
      <point x="109" y="697" type="line"/>
      <point x="89" y="697" type="line"/>
      <point x="89" y="252" type="line" smooth="yes"/>
      <point x="89" y="86"/>
      <point x="173" y="-6"/>
    </contour>
  </outline>
</glyph>
<glyph name="V" format="2">
  <advance width="638"/>
  <unicode hex="0056"/>
  <anchor x="319" y="0" name="bottom"/>
  <anchor x="319" y="697" name="top"/>
  <outline>
    <contour>
      <point x="308" y="0" type="line"/>
      <point x="331" y="0" type="line"/>
      <point x="604" y="697" type="line"/>
      <point x="582" y="697" type="line"/>
      <point x="319" y="23" type="line"/>
      <point x="319" y="23" type="line"/>
      <point x="56" y="697" type="line"/>
      <point x="34" y="697" type="line"/>
    </contour>
  </outline>
</glyph>
<glyph name="X" format="2">
  <advance width="603"/>
  <unicode hex="0058"/>
  <anchor x="302" y="0" name="bottom"/>
  <anchor x="302" y="697" name="top"/>
  <outline>
    <contour>
      <point x="37" y="0" type="line"/>
      <point x="61" y="0" type="line"/>
      <point x="301" y="337" type="line"/>
      <point x="542" y="0" type="line"/>
      <point x="567" y="0" type="line"/>
      <point x="315" y="354" type="line"/>
      <point x="559" y="697" type="line"/>
      <point x="535" y="697" type="line"/>
      <point x="301" y="370" type="line"/>
      <point x="69" y="697" type="line"/>
      <point x="44" y="697" type="line"/>
      <point x="288" y="354" type="line"/>
    </contour>
  </outline>
</glyph>
<glyph name="Y" format="2">
  <advance width="574"/>
  <unicode hex="0059"/>
  <anchor x="287" y="0" name="bottom"/>
  <anchor x="287" y="697" name="top"/>
  <anchor x="27" y="697" name="topleft"/>
  <outline>
    <contour>
      <point x="277" y="0" type="line"/>
      <point x="297" y="0" type="line"/>
      <point x="297" y="262" type="line"/>
      <point x="545" y="697" type="line"/>
      <point x="521" y="697" type="line"/>
      <point x="287" y="284" type="line"/>
      <point x="53" y="697" type="line"/>
      <point x="29" y="697" type="line"/>
      <point x="277" y="262" type="line"/>
    </contour>
  </outline>
</glyph>
<glyph name="bracketleft" format="2">
  <advance width="217"/>
  <unicode hex="005B"/>
  <outline>
    <contour>
      <point x="58" y="-245" type="line"/>
      <point x="218" y="-245" type="line"/>
      <point x="218" y="-229" type="line"/>
      <point x="76" y="-229" type="line"/>
      <point x="76" y="722" type="line"/>
      <point x="218" y="722" type="line"/>
      <point x="218" y="738" type="line"/>
      <point x="58" y="738" type="line"/>
    </contour>
  </outline>
</glyph>
<glyph name="asciicircum" format="2">
  <advance width="430"/>
  <unicode hex="005E"/>
  <outline>
    <contour>
      <point x="30" y="240" type="line"/>
      <point x="52" y="240" type="line"/>
      <point x="218" y="685" type="line"/>
      <point x="211" y="685" type="line"/>
      <point x="377" y="240" type="line"/>
      <point x="400" y="240" type="line"/>
      <point x="227" y="697" type="line"/>
      <point x="202" y="697" type="line"/>
    </contour>
  </outline>
</glyph>
<glyph name="grave" format="2">
  <advance width="258"/>
  <unicode hex="0060"/>
  <outline>
    <contour>
      <point x="173" y="558" type="line"/>
      <point x="192" y="558" type="line"/>
      <point x="88" y="697" type="line"/>
      <point x="66" y="697" type="line"/>
    </contour>
  </outline>
</glyph>
<glyph name="a" format="2">
  <advance width="532"/>
  <unicode hex="0061"/>
  <anchor x="273" y="0" name="bottom"/>
  <anchor x="448" y="0" name="ogonek"/>
  <anchor x="273" y="493" name="top"/>
  <outline>
    <contour>
      <point x="428" y="0" type="line"/>
      <point x="448" y="0" type="line"/>
      <point x="448" y="304" type="line" smooth="yes"/>
      <point x="448" y="432"/>
      <point x="384" y="498"/>
      <point x="265" y="498" type="curve" smooth="yes"/>
      <point x="186" y="498"/>
      <point x="132" y="470"/>
      <point x="83" y="404" type="curve"/>
      <point x="98" y="392" type="line"/>
      <point x="143" y="454"/>
      <point x="194" y="480"/>
      <point x="265" y="480" type="curve" smooth="yes"/>
      <point x="373" y="480"/>
      <point x="428" y="421"/>
      <point x="428" y="304" type="curve" smooth="yes"/>
      <point x="428" y="139" type="line"/>
    </contour>
    <contour>
      <point x="232" y="-5" type="curve" smooth="yes"/>
      <point x="336" y="-5"/>
      <point x="437" y="72"/>
      <point x="439" y="199" type="curve"/>
      <point x="428" y="217" type="line"/>
      <point x="428" y="100"/>
      <point x="340" y="12"/>
      <point x="234" y="12" type="curve" smooth="yes"/>
      <point x="140" y="12"/>
      <point x="85" y="61"/>
      <point x="85" y="136" type="curve" smooth="yes"/>
      <point x="85" y="178"/>
      <point x="101" y="208"/>
      <point x="128" y="228" type="curve" smooth="yes"/>
      <point x="159" y="250"/>
      <point x="206" y="259"/>
      <point x="263" y="259" type="curve" smooth="yes"/>
      <point x="432" y="259" type="line"/>
      <point x="432" y="276" type="line"/>
      <point x="261" y="276" type="line" smooth="yes"/>
      <point x="200" y="276"/>
      <point x="151" y="267"/>
      <point x="114" y="241" type="curve" smooth="yes"/>
      <point x="84" y="220"/>
      <point x="65" y="185"/>
      <point x="65" y="136" type="curve" smooth="yes"/>
      <point x="65" y="50"/>
      <point x="126" y="-5"/>
    </contour>
  </outline>
</glyph>
<glyph name="b" format="2">
  <advance width="605"/>
  <unicode hex="0062"/>
  <anchor x="294" y="0" name="bottom"/>
  <anchor x="135" y="608" name="center"/>
  <anchor x="98" y="697" name="top"/>
  <anchor x="-20" y="493" name="topleft"/>
  <outline>
    <contour>
      <point x="314" y="-5" type="curve" smooth="yes"/>
      <point x="442" y="-5"/>
      <point x="539" y="104"/>
      <point x="539" y="247" type="curve" smooth="yes"/>
      <point x="539" y="391"/>
      <point x="441" y="498"/>
      <point x="314" y="498" type="curve" smooth="yes"/>
      <point x="212" y="498"/>
      <point x="130" y="430"/>
      <point x="104" y="327" type="curve"/>
      <point x="108" y="324" type="line"/>
      <point x="108" y="697" type="line"/>
      <point x="88" y="697" type="line"/>
      <point x="88" y="0" type="line"/>
      <point x="108" y="0" type="line"/>
      <point x="108" y="170" type="line"/>
      <point x="103" y="167" type="line"/>
      <point x="129" y="65"/>
      <point x="211" y="-5"/>
    </contour>
    <contour>
      <point x="312" y="14" type="curve" smooth="yes"/>
      <point x="194" y="14"/>
      <point x="107" y="114"/>
      <point x="107" y="247" type="curve" smooth="yes"/>
      <point x="107" y="380"/>
      <point x="194" y="479"/>
      <point x="312" y="479" type="curve" smooth="yes"/>
      <point x="430" y="479"/>
      <point x="519" y="380"/>
      <point x="519" y="247" type="curve" smooth="yes"/>
      <point x="519" y="114"/>
      <point x="430" y="14"/>
    </contour>
  </outline>
</glyph>
<glyph name="f" format="2">
  <advance width="317"/>
  <unicode hex="0066"/>
  <anchor x="143" y="0" name="bottom"/>
  <anchor x="170" y="697" name="top"/>
  <outline>
    <contour>
      <point x="133" y="0" type="line"/>
      <point x="153" y="0" type="line"/>
      <point x="153" y="476" type="line"/>
      <point x="283" y="476" type="line"/>
      <point x="283" y="493" type="line"/>
      <point x="153" y="493" type="line"/>
      <point x="153" y="577" type="line" smooth="yes"/>
      <point x="153" y="649"/>
      <point x="187" y="684"/>
      <point x="247" y="684" type="curve" smooth="yes"/>
      <point x="273" y="684"/>
      <point x="292" y="679"/>
      <point x="311" y="670" type="curve"/>
      <point x="318" y="685" type="line"/>
      <point x="297" y="697"/>
      <point x="273" y="702"/>
      <point x="246" y="702" type="curve" smooth="yes"/>
      <point x="176" y="702"/>
      <point x="133" y="663"/>
      <point x="133" y="577" type="curve" smooth="yes"/>
      <point x="133" y="493" type="line"/>
      <point x="10" y="493" type="line"/>
      <point x="10" y="476" type="line"/>
      <point x="133" y="476" type="line"/>
    </contour>
  </outline>
</glyph>
<glyph name="m" format="2">
  <advance width="804"/>
  <unicode hex="006D"/>
  <anchor x="399" y="0" name="bottom"/>
  <anchor x="399" y="493" name="top"/>
  <outline>
    <contour>
      <point x="88" y="0" type="line"/>
      <point x="109" y="0" type="line"/>
      <point x="109" y="249" type="line" smooth="yes"/>
      <point x="109" y="413"/>
      <point x="178" y="480"/>
      <point x="257" y="480" type="curve" smooth="yes"/>
      <point x="347" y="480"/>
      <point x="394" y="421"/>
      <point x="394" y="292" type="curve" smooth="yes"/>
      <point x="394" y="0" type="line"/>
      <point x="414" y="0" type="line"/>
      <point x="414" y="269" type="line" smooth="yes"/>
      <point x="414" y="413"/>
      <point x="483" y="480"/>
      <point x="562" y="480" type="curve" smooth="yes"/>
      <point x="668" y="480"/>
      <point x="700" y="399"/>
      <point x="700" y="280" type="curve" smooth="yes"/>
      <point x="700" y="0" type="line"/>
      <point x="721" y="0" type="line"/>
      <point x="721" y="283" type="line" smooth="yes"/>
      <point x="721" y="412"/>
      <point x="681" y="498"/>
      <point x="566" y="498" type="curve" smooth="yes"/>
      <point x="482" y="498"/>
      <point x="424" y="447"/>
      <point x="403" y="349" type="curve"/>
      <point x="411" y="349" type="line"/>
      <point x="397" y="453"/>
      <point x="344" y="498"/>
      <point x="260" y="498" type="curve" smooth="yes"/>
      <point x="185" y="498"/>
      <point x="125" y="455"/>
      <point x="105" y="367" type="curve"/>
      <point x="108" y="367" type="line"/>
      <point x="108" y="493" type="line"/>
      <point x="88" y="493" type="line"/>
    </contour>
  </outline>
</glyph>
<glyph name="n" format="2">
  <advance width="517"/>
  <unicode hex="006E"/>
  <anchor x="260" y="0" name="bottom"/>
  <anchor x="255" y="493" name="top"/>
  <outline>
    <contour>
      <point x="88" y="0" type="line"/>
      <point x="108" y="0" type="line"/>
      <point x="108" y="241" type="line" smooth="yes"/>
      <point x="108" y="413"/>
      <point x="180" y="480"/>
      <point x="270" y="480" type="curve" smooth="yes"/>
      <point x="364" y="480"/>
      <point x="414" y="420"/>
      <point x="414" y="292" type="curve" smooth="yes"/>
      <point x="414" y="0" type="line"/>
      <point x="434" y="0" type="line"/>
      <point x="434" y="297" type="line" smooth="yes"/>
      <point x="434" y="438"/>
      <point x="372" y="498"/>
      <point x="270" y="498" type="curve" smooth="yes"/>
      <point x="188" y="498"/>
      <point x="126" y="452"/>
      <point x="104" y="358" type="curve"/>
      <point x="108" y="359" type="line"/>
      <point x="108" y="493" type="line"/>
      <point x="88" y="493" type="line"/>
    </contour>
  </outline>
</glyph>
<glyph name="o" format="2">
  <advance width="584"/>
  <unicode hex="006F"/>
  <anchor x="292" y="0" name="bottom"/>
  <anchor x="292" y="247" name="center"/>
  <anchor x="342" y="0" name="ogonek"/>
  <anchor x="292" y="493" name="top"/>
  <anchor x="524" y="386" name="topright"/>
  <outline>
    <contour>
      <point x="292" y="-5" type="curve" smooth="yes"/>
      <point x="425" y="-5"/>
      <point x="518" y="98"/>
      <point x="518" y="247" type="curve" smooth="yes"/>
      <point x="518" y="395"/>
      <point x="426" y="498"/>
      <point x="292" y="498" type="curve" smooth="yes"/>
      <point x="158" y="498"/>
      <point x="66" y="395"/>
      <point x="66" y="247" type="curve" smooth="yes"/>
      <point x="66" y="98"/>
      <point x="159" y="-5"/>
    </contour>
    <contour>
      <point x="292" y="13" type="curve" smooth="yes"/>
      <point x="169" y="13"/>
      <point x="86" y="109"/>
      <point x="86" y="247" type="curve" smooth="yes"/>
      <point x="86" y="385"/>
      <point x="170" y="480"/>
      <point x="292" y="480" type="curve" smooth="yes"/>
      <point x="414" y="480"/>
      <point x="498" y="385"/>
      <point x="498" y="247" type="curve" smooth="yes"/>
      <point x="498" y="109"/>
      <point x="415" y="13"/>
    </contour>
  </outline>
</glyph>
<glyph name="p" format="2">
  <advance width="605"/>
  <unicode hex="0070"/>
  <guideline x="348" y="-204" angle="0" name=""/>
  <anchor x="98" y="-204" name="bottom"/>
  <anchor x="-20" y="0" name="bottomleft"/>
  <anchor x="135" y="-115" name="center"/>
  <anchor x="294" y="493" name="top"/>
  <outline>
    <contour>
      <point x="88" y="-204" type="line"/>
      <point x="108" y="-204" type="line"/>
      <point x="108" y="169" type="line"/>
      <point x="104" y="165" type="line"/>
      <point x="129" y="64"/>
      <point x="211" y="-5"/>
      <point x="314" y="-5" type="curve" smooth="yes"/>
      <point x="441" y="-5"/>
      <point x="539" y="102"/>
      <point x="539" y="246" type="curve" smooth="yes"/>
      <point x="539" y="389"/>
      <point x="442" y="498"/>
      <point x="314" y="498" type="curve" smooth="yes"/>
      <point x="214" y="498"/>
      <point x="131" y="434"/>
      <point x="103" y="327" type="curve"/>
      <point x="108" y="323" type="line"/>
      <point x="108" y="493" type="line"/>
      <point x="88" y="493" type="line"/>
    </contour>
    <contour>
      <point x="312" y="14" type="curve" smooth="yes"/>
      <point x="194" y="14"/>
      <point x="107" y="113"/>
      <point x="107" y="246" type="curve" smooth="yes"/>
      <point x="107" y="379"/>
      <point x="194" y="479"/>
      <point x="312" y="479" type="curve" smooth="yes"/>
      <point x="430" y="479"/>
      <point x="519" y="379"/>
      <point x="519" y="246" type="curve" smooth="yes"/>
      <point x="519" y="113"/>
      <point x="430" y="14"/>
    </contour>
  </outline>
</glyph>
<glyph name="r" format="2">
  <advance width="376"/>
  <unicode hex="0072"/>
  <anchor x="178" y="0" name="bottom"/>
  <anchor x="178" y="493" name="top"/>
  <outline>
    <contour>
      <point x="88" y="0" type="line"/>
      <point x="108" y="0" type="line"/>
      <point x="108" y="260" type="line" smooth="yes"/>
      <point x="108" y="314"/>
      <point x="111" y="338"/>
      <point x="117" y="359" type="curve" smooth="yes"/>
      <point x="141" y="446"/>
      <point x="214" y="479"/>
      <point x="272" y="479" type="curve" smooth="yes"/>
      <point x="295" y="479"/>
      <point x="315" y="474"/>
      <point x="332" y="467" type="curve"/>
      <point x="343" y="485" type="line"/>
      <point x="323" y="494"/>
      <point x="296" y="498"/>
      <point x="275" y="498" type="curve" smooth="yes"/>
      <point x="212" y="498"/>
      <point x="126" y="463"/>
      <point x="104" y="364" type="curve"/>
      <point x="108" y="364" type="line"/>
      <point x="108" y="493" type="line"/>
      <point x="88" y="493" type="line"/>
    </contour>
  </outline>
</glyph>
<glyph name="s" format="2">
  <advance width="460"/>
  <unicode hex="0073"/>
  <anchor x="220" y="0" name="bottom"/>
  <anchor x="220" y="493" name="top"/>
  <outline>
    <contour>
      <point x="234" y="-5" type="curve" smooth="yes"/>
      <point x="333" y="-5"/>
      <point x="396" y="47"/>
      <point x="396" y="130" type="curve" smooth="yes"/>
      <point x="396" y="230"/>
      <point x="312" y="252"/>
      <point x="222" y="273" type="curve" smooth="yes"/>
      <point x="145" y="291"/>
      <point x="88" y="311"/>
      <point x="88" y="380" type="curve" smooth="yes"/>
      <point x="88" y="439"/>
      <point x="142" y="481"/>
      <point x="218" y="481" type="curve" smooth="yes"/>
      <point x="282" y="481"/>
      <point x="333" y="453"/>
      <point x="364" y="391" type="curve"/>
      <point x="379" y="400" type="line"/>
      <point x="348" y="467"/>
      <point x="287" y="498"/>
      <point x="218" y="498" type="curve" smooth="yes"/>
      <point x="130" y="498"/>
      <point x="69" y="448"/>
      <point x="69" y="379" type="curve" smooth="yes"/>
      <point x="69" y="297"/>
      <point x="136" y="274"/>
      <point x="217" y="255" type="curve" smooth="yes"/>
      <point x="296" y="236"/>
      <point x="377" y="217"/>
      <point x="377" y="128" type="curve" smooth="yes"/>
      <point x="377" y="55"/>
      <point x="318" y="13"/>
      <point x="234" y="13" type="curve" smooth="yes"/>
      <point x="147" y="13"/>
      <point x="81" y="57"/>
      <point x="57" y="124" type="curve"/>
      <point x="41" y="114" type="line"/>
      <point x="68" y="42"/>
      <point x="140" y="-5"/>
    </contour>
  </outline>
</glyph>
<glyph name="t" format="2">
  <advance width="311"/>
  <unicode hex="0074"/>
  <anchor x="188" y="0" name="bottom"/>
  <anchor x="158" y="247" name="center"/>
  <anchor x="167" y="493" name="top"/>
  <anchor x="302" y="571" name="topright"/>
  <outline>
    <contour>
      <point x="214" y="-5" type="curve" smooth="yes"/>
      <point x="236" y="-5"/>
      <point x="254" y="-1"/>
      <point x="277" y="5" type="curve"/>
      <point x="277" y="23" type="line"/>
      <point x="256" y="16"/>
      <point x="235" y="13"/>
      <point x="217" y="13" type="curve" smooth="yes"/>
      <point x="172" y="13"/>
      <point x="152" y="44"/>
      <point x="152" y="98" type="curve" smooth="yes"/>
      <point x="152" y="668" type="line"/>
      <point x="132" y="668" type="line"/>
      <point x="132" y="95" type="line" smooth="yes"/>
      <point x="132" y="32"/>
      <point x="157" y="-5"/>
    </contour>
    <contour>
      <point x="10" y="476" type="line"/>
      <point x="277" y="476" type="line"/>
      <point x="277" y="493" type="line"/>
      <point x="10" y="493" type="line"/>
    </contour>
  </outline>
</glyph>
<glyph name="u" format="2">
  <advance width="517"/>
  <unicode hex="0075"/>
  <anchor x="261" y="0" name="bottom"/>
  <anchor x="427" y="0" name="ogonek"/>
  <anchor x="255" y="493" name="top"/>
  <anchor x="473" y="470" name="topright"/>
  <outline>
    <contour>
      <point x="245" y="-5" type="curve" smooth="yes"/>
      <point x="326" y="-5"/>
      <point x="389" y="36"/>
      <point x="411" y="134" type="curve"/>
      <point x="408" y="134" type="line"/>
      <point x="408" y="0" type="line"/>
      <point x="428" y="0" type="line"/>
      <point x="428" y="493" type="line"/>
      <point x="408" y="493" type="line"/>
      <point x="408" y="232" type="line" smooth="yes"/>
      <point x="408" y="81"/>
      <point x="346" y="13"/>
      <point x="246" y="13" type="curve" smooth="yes"/>
      <point x="152" y="13"/>
      <point x="102" y="73"/>
      <point x="102" y="201" type="curve" smooth="yes"/>
      <point x="102" y="493" type="line"/>
      <point x="82" y="493" type="line"/>
      <point x="82" y="196" type="line" smooth="yes"/>
      <point x="82" y="55"/>
      <point x="144" y="-5"/>
    </contour>
  </outline>
</glyph>
<glyph name="w" format="2">
  <advance width="744"/>
  <unicode hex="0077"/>
  <anchor x="372" y="0" name="bottom"/>
  <anchor x="372" y="493" name="top"/>
  <outline>
    <contour>
      <point x="183" y="0" type="line"/>
      <point x="207" y="0" type="line"/>
      <point x="373" y="469" type="line"/>
      <point x="537" y="0" type="line"/>
      <point x="562" y="0" type="line"/>
      <point x="698" y="493" type="line"/>
      <point x="677" y="493" type="line"/>
      <point x="549" y="28" type="line"/>
      <point x="385" y="493" type="line"/>
      <point x="361" y="493" type="line"/>
      <point x="196" y="27" type="line"/>
      <point x="68" y="493" type="line"/>
      <point x="46" y="493" type="line"/>
    </contour>
  </outline>
</glyph>
<glyph name="z" format="2">
  <advance width="476"/>
  <unicode hex="007A"/>
  <anchor x="240" y="0" name="bottom"/>
  <anchor x="240" y="247" name="center"/>
  <anchor x="240" y="493" name="top"/>
  <outline>
    <contour>
      <point x="44" y="0" type="line"/>
      <point x="426" y="0" type="line"/>
      <point x="426" y="18" type="line"/>
      <point x="64" y="18" type="line"/>
      <point x="65" y="16" type="line"/>
      <point x="431" y="468" type="line"/>
      <point x="431" y="493" type="line"/>
      <point x="63" y="493" type="line"/>
      <point x="63" y="475" type="line"/>
      <point x="412" y="475" type="line"/>
      <point x="411" y="473" type="line"/>
      <point x="44" y="22" type="line"/>
    </contour>
  </outline>
</glyph>
<glyph name="currency" format="2">
  <advance width="584"/>
  <unicode hex="00A4"/>
  <outline>
    <contour>
      <point x="77" y="84" type="line"/>
      <point x="144" y="153" type="line"/>
      <point x="187" y="114"/>
      <point x="239" y="93"/>
      <point x="294" y="93" type="curve" smooth="yes"/>
      <point x="348" y="93"/>
      <point x="402" y="114"/>
      <point x="443" y="153" type="curve"/>
      <point x="510" y="84" type="line"/>
      <point x="523" y="98" type="line"/>
      <point x="455" y="165" type="line"/>
      <point x="497" y="208"/>
      <point x="515" y="264"/>
      <point x="515" y="314" type="curve" smooth="yes"/>
      <point x="515" y="369"/>
      <point x="495" y="422"/>
      <point x="455" y="464" type="curve"/>
      <point x="523" y="530" type="line"/>
      <point x="510" y="543" type="line"/>
      <point x="443" y="476" type="line"/>
      <point x="399" y="518"/>
      <point x="344" y="535"/>
      <point x="294" y="535" type="curve" smooth="yes"/>
      <point x="238" y="535"/>
      <point x="185" y="514"/>
      <point x="144" y="476" type="curve"/>
      <point x="77" y="543" type="line"/>
      <point x="65" y="530" type="line"/>
      <point x="132" y="464" type="line"/>
      <point x="96" y="425"/>
      <point x="73" y="372"/>
      <point x="73" y="314" type="curve" smooth="yes"/>
      <point x="73" y="260"/>
      <point x="93" y="207"/>
      <point x="132" y="165" type="curve"/>
      <point x="65" y="98" type="line"/>
    </contour>
    <contour>
      <point x="293" y="111" type="curve" smooth="yes"/>
      <point x="183" y="111"/>
      <point x="90" y="203"/>
      <point x="90" y="314" type="curve" smooth="yes"/>
      <point x="90" y="425"/>
      <point x="183" y="517"/>
      <point x="294" y="517" type="curve" smooth="yes"/>
      <point x="406" y="517"/>
      <point x="497" y="425"/>
      <point x="497" y="314" type="curve" smooth="yes"/>
      <point x="497" y="202"/>
      <point x="403" y="111"/>
    </contour>
  </outline>
</glyph>
<glyph name="yen" format="2">
  <advance width="626"/>
  <unicode hex="00A5"/>
  <outline>
    <contour>
      <point x="303" y="0" type="line"/>
      <point x="324" y="0" type="line"/>
      <point x="324" y="116" type="line"/>
      <point x="522" y="116" type="line"/>
      <point x="522" y="134" type="line"/>
      <point x="324" y="134" type="line"/>
      <point x="324" y="259" type="line"/>
      <point x="522" y="259" type="line"/>
      <point x="522" y="277" type="line"/>
      <point x="332" y="277" type="line"/>
      <point x="588" y="697" type="line"/>
      <point x="565" y="697" type="line"/>
      <point x="313" y="283" type="line"/>
      <point x="62" y="697" type="line"/>
      <point x="39" y="697" type="line"/>
      <point x="295" y="277" type="line"/>
      <point x="105" y="277" type="line"/>
      <point x="105" y="259" type="line"/>
      <point x="303" y="259" type="line"/>
      <point x="303" y="134" type="line"/>
      <point x="105" y="134" type="line"/>
      <point x="105" y="116" type="line"/>
      <point x="303" y="116" type="line"/>
    </contour>
  </outline>
</glyph>
<glyph name="ordfeminine" format="2">
  <advance width="480"/>
  <unicode hex="00AA"/>
  <outline>
    <contour>
      <point x="207" y="345" type="curve" smooth="yes"/>
      <point x="269" y="345"/>
      <point x="317" y="377"/>
      <point x="350" y="438" type="curve"/>
      <point x="350" y="350" type="line"/>
      <point x="365" y="350" type="line"/>
      <point x="365" y="565" type="line" smooth="yes"/>
      <point x="365" y="654"/>
      <point x="318" y="702"/>
      <point x="233" y="702" type="curve" smooth="yes"/>
      <point x="178" y="702"/>
      <point x="140" y="683"/>
      <point x="105" y="634" type="curve"/>
      <point x="117" y="626" type="line"/>
      <point x="146" y="667"/>
      <point x="181" y="688"/>
      <point x="234" y="688" type="curve" smooth="yes"/>
      <point x="310" y="688"/>
      <point x="350" y="644"/>
      <point x="350" y="567" type="curve" smooth="yes"/>
      <point x="350" y="560"/>
      <point x="350" y="552"/>
      <point x="350" y="545" type="curve"/>
      <point x="226" y="545" type="line" smooth="yes"/>
      <point x="145" y="545"/>
      <point x="92" y="512"/>
      <point x="92" y="445" type="curve" smooth="yes"/>
      <point x="92" y="385"/>
      <point x="138" y="345"/>
    </contour>
    <contour>
      <point x="209" y="360" type="curve" smooth="yes"/>
      <point x="150" y="360"/>
      <point x="108" y="392"/>
      <point x="108" y="445" type="curve" smooth="yes"/>
      <point x="108" y="500"/>
      <point x="151" y="530"/>
      <point x="226" y="530" type="curve" smooth="yes"/>
      <point x="350" y="530" type="line"/>
      <point x="350" y="506"/>
      <point x="349" y="484"/>
      <point x="349" y="461" type="curve"/>
      <point x="319" y="397"/>
      <point x="271" y="360"/>
    </contour>
  </outline>
</glyph>
<glyph name="logicalnot" format="2">
  <advance width="560"/>
  <unicode hex="00AC"/>
  <guideline x="694" y="505" angle="0" name=""/>
  <guideline x="688" y="484" angle="0" name=""/>
  <outline>
    <contour>
      <point x="440" y="5" type="line"/>
      <point x="458" y="5" type="line"/>
      <point x="458" y="257" type="line"/>
      <point x="31" y="257" type="line"/>
      <point x="31" y="239" type="line"/>
      <point x="440" y="239" type="line"/>
    </contour>
  </outline>
</glyph>
<glyph name="registered" format="2">
  <advance width="618"/>
  <unicode hex="00AE"/>
  <outline>
    <contour>
      <point x="309" y="194" type="curve" smooth="yes"/>
      <point x="449" y="194"/>
      <point x="563" y="307"/>
      <point x="563" y="448" type="curve" smooth="yes"/>
      <point x="563" y="589"/>
      <point x="449" y="702"/>
      <point x="309" y="702" type="curve" smooth="yes"/>
      <point x="168" y="702"/>
      <point x="55" y="590"/>
      <point x="55" y="448" type="curve" smooth="yes"/>
      <point x="55" y="306"/>
      <point x="168" y="194"/>
    </contour>
    <contour>
      <point x="309" y="208" type="curve" smooth="yes"/>
      <point x="177" y="208"/>
      <point x="69" y="314"/>
      <point x="69" y="448" type="curve" smooth="yes"/>
      <point x="69" y="582"/>
      <point x="177" y="689"/>
      <point x="309" y="689" type="curve" smooth="yes"/>
      <point x="441" y="689"/>
      <point x="549" y="582"/>
      <point x="549" y="448" type="curve" smooth="yes"/>
      <point x="549" y="314"/>
      <point x="441" y="208"/>
    </contour>
    <contour>
      <point x="239" y="303" type="line"/>
      <point x="253" y="303" type="line"/>
      <point x="253" y="438" type="line"/>
      <point x="312" y="438" type="line"/>
      <point x="405" y="303" type="line"/>
      <point x="422" y="303" type="line"/>
      <point x="326" y="439" type="line"/>
      <point x="375" y="443"/>
      <point x="408" y="467"/>
      <point x="408" y="515" type="curve" smooth="yes"/>
      <point x="408" y="564"/>
      <point x="375" y="593"/>
      <point x="313" y="593" type="curve" smooth="yes"/>
      <point x="239" y="593" type="line"/>
    </contour>
    <contour>
      <point x="254" y="451" type="line"/>
      <point x="254" y="580" type="line"/>
      <point x="312" y="580" type="line" smooth="yes"/>
      <point x="363" y="580"/>
      <point x="394" y="558"/>
      <point x="394" y="515" type="curve" smooth="yes"/>
      <point x="394" y="472"/>
      <point x="363" y="451"/>
      <point x="312" y="451" type="curve" smooth="yes"/>
    </contour>
  </outline>
</glyph>
<glyph name="macron" format="2">
  <advance width="398"/>
  <unicode hex="00AF"/>
  <outline>
    <contour>
      <point x="66" y="631" type="line"/>
      <point x="332" y="631" type="line"/>
      <point x="332" y="646" type="line"/>
      <point x="66" y="646" type="line"/>
    </contour>
  </outline>
</glyph>
<glyph name="degree" format="2">
  <advance width="411"/>
  <unicode hex="00B0"/>
  <outline>
    <contour>
      <point x="206" y="423" type="curve" smooth="yes"/>
      <point x="282" y="423"/>
      <point x="345" y="486"/>
      <point x="345" y="563" type="curve" smooth="yes"/>
      <point x="345" y="639"/>
      <point x="282" y="702"/>
      <point x="206" y="702" type="curve" smooth="yes"/>
      <point x="129" y="702"/>
      <point x="66" y="639"/>
      <point x="66" y="563" type="curve" smooth="yes"/>
      <point x="66" y="486"/>
      <point x="129" y="423"/>
    </contour>
    <contour>
      <point x="206" y="439" type="curve" smooth="yes"/>
      <point x="138" y="439"/>
      <point x="82" y="494"/>
      <point x="82" y="563" type="curve" smooth="yes"/>
      <point x="82" y="631"/>
      <point x="138" y="686"/>
      <point x="206" y="686" type="curve" smooth="yes"/>
      <point x="273" y="686"/>
      <point x="329" y="631"/>
      <point x="329" y="563" type="curve" smooth="yes"/>
      <point x="329" y="494"/>
      <point x="273" y="439"/>
    </contour>
  </outline>
</glyph>
<glyph name="plusminus" format="2">
  <advance width="560"/>
  <unicode hex="00B1"/>
  <outline>
    <contour>
      <point x="271" y="104" type="line"/>
      <point x="289" y="104" type="line"/>
      <point x="289" y="292" type="line"/>
      <point x="529" y="292" type="line"/>
      <point x="529" y="311" type="line"/>
      <point x="289" y="311" type="line"/>
      <point x="289" y="497" type="line"/>
      <point x="271" y="497" type="line"/>
      <point x="271" y="311" type="line"/>
      <point x="31" y="311" type="line"/>
      <point x="31" y="292" type="line"/>
      <point x="271" y="292" type="line"/>
    </contour>
    <contour>
      <point x="31" y="-4" type="line"/>
      <point x="529" y="-4" type="line"/>
      <point x="529" y="14" type="line"/>
      <point x="31" y="14" type="line"/>
    </contour>
  </outline>
</glyph>
<glyph name="twosuperior" format="2">
  <advance width="394"/>
  <unicode hex="00B2"/>
  <outline>
    <contour>
      <point x="54" y="488" type="line"/>
      <point x="342" y="488" type="line"/>
      <point x="342" y="502" type="line"/>
      <point x="68" y="502" type="line"/>
      <point x="68" y="679"/>
      <point x="318" y="651"/>
      <point x="318" y="788" type="curve" smooth="yes"/>
      <point x="318" y="861"/>
      <point x="272" y="905"/>
      <point x="200" y="905" type="curve" smooth="yes"/>
      <point x="120" y="905"/>
      <point x="76" y="853"/>
      <point x="76" y="771" type="curve"/>
      <point x="90" y="770" type="line"/>
      <point x="91" y="848"/>
      <point x="133" y="891"/>
      <point x="200" y="891" type="curve" smooth="yes"/>
      <point x="266" y="891"/>
      <point x="303" y="851"/>
      <point x="303" y="788" type="curve" smooth="yes"/>
      <point x="303" y="669"/>
      <point x="54" y="688"/>
      <point x="54" y="507" type="curve"/>
    </contour>
  </outline>
</glyph>
<glyph name="threesuperior" format="2">
  <advance width="396"/>
  <unicode hex="00B3"/>
  <outline>
    <contour>
      <point x="194" y="483" type="curve" smooth="yes"/>
      <point x="274" y="483"/>
      <point x="333" y="529"/>
      <point x="333" y="601" type="curve" smooth="yes"/>
      <point x="333" y="673"/>
      <point x="269" y="700"/>
      <point x="220" y="706" type="curve"/>
      <point x="257" y="713"/>
      <point x="311" y="736"/>
      <point x="311" y="801" type="curve" smooth="yes"/>
      <point x="311" y="861"/>
      <point x="259" y="903"/>
      <point x="192" y="903" type="curve" smooth="yes"/>
      <point x="124" y="903"/>
      <point x="74" y="861"/>
      <point x="74" y="795" type="curve"/>
      <point x="89" y="795" type="line"/>
      <point x="89" y="850"/>
      <point x="133" y="889"/>
      <point x="193" y="889" type="curve" smooth="yes"/>
      <point x="249" y="889"/>
      <point x="296" y="851"/>
      <point x="296" y="799" type="curve" smooth="yes"/>
      <point x="296" y="729"/>
      <point x="227" y="711"/>
      <point x="172" y="711" type="curve"/>
      <point x="172" y="698" type="line"/>
      <point x="232" y="699"/>
      <point x="318" y="681"/>
      <point x="318" y="601" type="curve" smooth="yes"/>
      <point x="318" y="537"/>
      <point x="265" y="497"/>
      <point x="194" y="497" type="curve" smooth="yes"/>
      <point x="121" y="497"/>
      <point x="70" y="537"/>
      <point x="70" y="605" type="curve"/>
      <point x="55" y="604" type="line"/>
      <point x="55" y="529"/>
      <point x="112" y="483"/>
    </contour>
  </outline>
</glyph>
<glyph name="micro" format="2">
  <advance width="517"/>
  <unicode hex="00B5"/>
  <outline>
    <contour>
      <point x="82" y="-180" type="line"/>
      <point x="102" y="-180" type="line"/>
      <point x="102" y="92" type="line"/>
      <point x="122" y="28"/>
      <point x="171" y="-5"/>
      <point x="246" y="-5" type="curve" smooth="yes"/>
      <point x="325" y="-5"/>
      <point x="385" y="36"/>
      <point x="408" y="106" type="curve"/>
      <point x="408" y="0" type="line"/>
      <point x="428" y="0" type="line"/>
      <point x="428" y="493" type="line"/>
      <point x="408" y="493" type="line"/>
      <point x="408" y="191" type="line" smooth="yes"/>
      <point x="408" y="84"/>
      <point x="347" y="13"/>
      <point x="249" y="13" type="curve" smooth="yes"/>
      <point x="151" y="13"/>
      <point x="102" y="73"/>
      <point x="102" y="183" type="curve" smooth="yes"/>
      <point x="102" y="493" type="line"/>
      <point x="82" y="493" type="line"/>
    </contour>
  </outline>
</glyph>
<glyph name="paragraph" format="2">
  <advance width="505"/>
  <unicode hex="00B6"/>
  <outline>
    <contour>
      <point x="268" y="-121" type="line"/>
      <point x="283" y="-121" type="line"/>
      <point x="283" y="697" type="line"/>
      <point x="268" y="697" type="line" smooth="yes"/>
      <point x="153" y="697"/>
      <point x="45" y="625"/>
      <point x="45" y="502" type="curve" smooth="yes"/>
      <point x="45" y="379"/>
      <point x="153" y="307"/>
      <point x="268" y="307" type="curve"/>
    </contour>
    <contour>
      <point x="392" y="-121" type="line"/>
      <point x="408" y="-121" type="line"/>
      <point x="408" y="697" type="line"/>
      <point x="392" y="697" type="line"/>
    </contour>
  </outline>
</glyph>
<glyph name="multiply" format="2">
  <advance width="560"/>
  <unicode hex="00D7"/>
  <outline>
    <contour>
      <point x="112" y="64" type="line"/>
      <point x="281" y="233" type="line"/>
      <point x="452" y="64" type="line"/>
      <point x="465" y="77" type="line"/>
      <point x="295" y="246" type="line"/>
      <point x="465" y="416" type="line"/>
      <point x="452" y="430" type="line"/>
      <point x="281" y="259" type="line"/>
      <point x="111" y="430" type="line"/>
      <point x="98" y="417" type="line"/>
      <point x="268" y="246" type="line"/>
      <point x="99" y="77" type="line"/>
    </contour>
  </outline>
</glyph>
<glyph name="germandbls" format="2">
  <advance width="610"/>
  <unicode hex="00DF"/>
  <outline>
    <contour>
      <point x="394" y="-5" type="curve" smooth="yes"/>
      <point x="492" y="-5"/>
      <point x="556" y="44"/>
      <point x="556" y="130" type="curve" smooth="yes"/>
      <point x="556" y="325"/>
      <point x="238" y="218"/>
      <point x="238" y="379" type="curve" smooth="yes"/>
      <point x="238" y="532"/>
      <point x="466" y="446"/>
      <point x="466" y="581" type="curve" smooth="yes"/>
      <point x="466" y="650"/>
      <point x="391" y="702"/>
      <point x="295" y="702" type="curve" smooth="yes"/>
      <point x="115" y="702"/>
      <point x="89" y="591"/>
      <point x="89" y="488" type="curve" smooth="yes"/>
      <point x="89" y="0" type="line"/>
      <point x="109" y="0" type="line"/>
      <point x="109" y="488" type="line" smooth="yes"/>
      <point x="109" y="550"/>
      <point x="109" y="683"/>
      <point x="296" y="683" type="curve" smooth="yes"/>
      <point x="376" y="683"/>
      <point x="447" y="640"/>
      <point x="447" y="581" type="curve" smooth="yes"/>
      <point x="447" y="463"/>
      <point x="218" y="548"/>
      <point x="218" y="379" type="curve" smooth="yes"/>
      <point x="218" y="198"/>
      <point x="536" y="307"/>
      <point x="536" y="128" type="curve" smooth="yes"/>
      <point x="536" y="57"/>
      <point x="483" y="13"/>
      <point x="394" y="13" type="curve" smooth="yes"/>
      <point x="307" y="13"/>
      <point x="240" y="61"/>
      <point x="218" y="125" type="curve"/>
      <point x="200" y="117" type="line"/>
      <point x="226" y="43"/>
      <point x="303" y="-5"/>
    </contour>
  </outline>
</glyph>
<glyph name="ae" format="2">
  <advance width="897"/>
  <unicode hex="00E6"/>
  <anchor x="450" y="0" name="bottom"/>
  <anchor x="450" y="493" name="top"/>
  <outline>
    <contour>
      <point x="228" y="-5" type="curve" smooth="yes"/>
      <point x="332" y="-5"/>
      <point x="402" y="52"/>
      <point x="431" y="183" type="curve"/>
      <point x="434" y="183" type="line"/>
      <point x="453" y="67"/>
      <point x="529" y="-5"/>
      <point x="638" y="-5" type="curve" smooth="yes"/>
      <point x="716" y="-5"/>
      <point x="763" y="14"/>
      <point x="820" y="71" type="curve"/>
      <point x="805" y="85" type="line"/>
      <point x="752" y="30"/>
      <point x="708" y="14"/>
      <point x="639" y="14" type="curve" smooth="yes"/>
      <point x="526" y="14"/>
      <point x="448" y="94"/>
      <point x="447" y="247" type="curve"/>
      <point x="829" y="247" type="line"/>
      <point x="831" y="256"/>
      <point x="832" y="270"/>
      <point x="832" y="288" type="curve" smooth="yes"/>
      <point x="832" y="378"/>
      <point x="782" y="498"/>
      <point x="632" y="498" type="curve" smooth="yes"/>
      <point x="539" y="498"/>
      <point x="470" y="435"/>
      <point x="443" y="337" type="curve"/>
      <point x="434" y="442"/>
      <point x="372" y="498"/>
      <point x="266" y="498" type="curve" smooth="yes"/>
      <point x="188" y="498"/>
      <point x="133" y="472"/>
      <point x="83" y="404" type="curve"/>
      <point x="99" y="392" type="line"/>
      <point x="144" y="455"/>
      <point x="193" y="480"/>
      <point x="265" y="480" type="curve" smooth="yes"/>
      <point x="372" y="480"/>
      <point x="428" y="420"/>
      <point x="428" y="304" type="curve" smooth="yes"/>
      <point x="428" y="264" type="line"/>
      <point x="283" y="264" type="line" smooth="yes"/>
      <point x="150" y="264"/>
      <point x="65" y="235"/>
      <point x="65" y="135" type="curve" smooth="yes"/>
      <point x="65" y="49"/>
      <point x="128" y="-5"/>
    </contour>
    <contour>
      <point x="229" y="13" type="curve" smooth="yes"/>
      <point x="140" y="13"/>
      <point x="85" y="60"/>
      <point x="85" y="135" type="curve" smooth="yes"/>
      <point x="85" y="217"/>
      <point x="148" y="248"/>
      <point x="284" y="248" type="curve" smooth="yes"/>
      <point x="428" y="248" type="line"/>
      <point x="428" y="240" type="line"/>
      <point x="409" y="69"/>
      <point x="322" y="13"/>
    </contour>
    <contour>
      <point x="447" y="264" type="line"/>
      <point x="452" y="391"/>
      <point x="526" y="480"/>
      <point x="632" y="480" type="curve" smooth="yes"/>
      <point x="763" y="480"/>
      <point x="820" y="378"/>
      <point x="811" y="264" type="curve"/>
    </contour>
  </outline>
</glyph>
<glyph name="eth" format="2">
  <advance width="651"/>
  <unicode hex="00F0"/>
  <outline>
    <contour>
      <point x="285" y="-5" type="curve" smooth="yes"/>
      <point x="482" y="-5"/>
      <point x="565" y="176"/>
      <point x="565" y="361" type="curve" smooth="yes"/>
      <point x="565" y="588"/>
      <point x="489" y="703"/>
      <point x="177" y="709" type="curve"/>
      <point x="176" y="693" type="line"/>
      <point x="461" y="688"/>
      <point x="569" y="589"/>
      <point x="543" y="300" type="curve"/>
      <point x="537" y="397"/>
      <point x="485" y="508"/>
      <point x="358" y="508" type="curve" smooth="yes"/>
      <point x="195" y="508"/>
      <point x="81" y="387"/>
      <point x="81" y="211" type="curve" smooth="yes"/>
      <point x="81" y="82"/>
      <point x="163" y="-5"/>
    </contour>
    <contour>
      <point x="285" y="13" type="curve" smooth="yes"/>
      <point x="175" y="13"/>
      <point x="100" y="92"/>
      <point x="100" y="211" type="curve" smooth="yes"/>
      <point x="100" y="375"/>
      <point x="203" y="490"/>
      <point x="359" y="490" type="curve" smooth="yes"/>
      <point x="507" y="490"/>
      <point x="549" y="329"/>
      <point x="531" y="237" type="curve" smooth="yes"/>
      <point x="504" y="99"/>
      <point x="416" y="13"/>
    </contour>
    <contour>
      <point x="312" y="560" type="line"/>
      <point x="615" y="667" type="line"/>
      <point x="611" y="679" type="line"/>
      <point x="308" y="572" type="line"/>
    </contour>
  </outline>
</glyph>
<glyph name="divide" format="2">
  <advance width="561"/>
  <unicode hex="00F7"/>
  <outline>
    <contour>
      <point x="80" y="238" type="line"/>
      <point x="481" y="238" type="line"/>
      <point x="481" y="256" type="line"/>
      <point x="80" y="256" type="line"/>
    </contour>
    <contour>
      <point x="269" y="60" type="line"/>
      <point x="291" y="60" type="line"/>
      <point x="291" y="152" type="line"/>
      <point x="269" y="152" type="line"/>
    </contour>
    <contour>
      <point x="269" y="343" type="line"/>
      <point x="291" y="343" type="line"/>
      <point x="291" y="433" type="line"/>
      <point x="269" y="433" type="line"/>
    </contour>
  </outline>
</glyph>
<glyph name="OE" format="2">
  <advance width="1068"/>
  <unicode hex="0152"/>
  <anchor x="549" y="0" name="bottom"/>
  <anchor x="549" y="697" name="top"/>
  <outline>
    <contour>
      <point x="419" y="0" type="curve" smooth="yes"/>
      <point x="1024" y="0" type="line"/>
      <point x="1024" y="19" type="line"/>
      <point x="595" y="19" type="line"/>
      <point x="595" y="342" type="line"/>
      <point x="972" y="342" type="line"/>
      <point x="972" y="361" type="line"/>
      <point x="595" y="361" type="line"/>
      <point x="595" y="678" type="line"/>
      <point x="1024" y="678" type="line"/>
      <point x="1024" y="697" type="line"/>
      <point x="418" y="697" type="line" smooth="yes"/>
      <point x="196" y="697"/>
      <point x="68" y="568"/>
      <point x="68" y="343" type="curve" smooth="yes"/>
      <point x="68" y="122"/>
      <point x="193" y="0"/>
    </contour>
    <contour>
      <point x="420" y="19" type="line" smooth="yes"/>
      <point x="206" y="19"/>
      <point x="89" y="131"/>
      <point x="89" y="343" type="curve" smooth="yes"/>
      <point x="89" y="559"/>
      <point x="209" y="678"/>
      <point x="418" y="678" type="curve" smooth="yes"/>
      <point x="574" y="678" type="line"/>
      <point x="574" y="19" type="line"/>
    </contour>
  </outline>
</glyph>
<glyph name="Schwa" format="2">
  <advance width="732"/>
  <unicode hex="018F"/>
  <anchor x="356" y="0" name="bottom"/>
  <anchor x="356" y="697" name="top"/>
  <outline>
    <contour>
      <point x="366" y="-6" type="curve" smooth="yes"/>
      <point x="555" y="-6"/>
      <point x="664" y="124"/>
      <point x="664" y="351" type="curve" smooth="yes"/>
      <point x="664" y="576"/>
      <point x="554" y="703"/>
      <point x="358" y="703" type="curve" smooth="yes"/>
      <point x="227" y="703"/>
      <point x="138" y="647"/>
      <point x="91" y="524" type="curve"/>
      <point x="110" y="517" type="line"/>
      <point x="153" y="631"/>
      <point x="233" y="683"/>
      <point x="358" y="683" type="curve" smooth="yes"/>
      <point x="544" y="683"/>
      <point x="644" y="565"/>
      <point x="644" y="351" type="curve" smooth="yes"/>
      <point x="644" y="137"/>
      <point x="544" y="14"/>
      <point x="366" y="14" type="curve" smooth="yes"/>
      <point x="188" y="14"/>
      <point x="88" y="138"/>
      <point x="88" y="351" type="curve"/>
      <point x="68" y="351" type="line"/>
      <point x="68" y="124"/>
      <point x="177" y="-6"/>
    </contour>
    <contour>
      <point x="79" y="333" type="line"/>
      <point x="660" y="333" type="line"/>
      <point x="660" y="351" type="line"/>
      <point x="79" y="351" type="line"/>
    </contour>
  </outline>
</glyph>
<glyph name="florin" format="2">
  <advance width="465"/>
  <unicode hex="0192"/>
  <outline>
    <contour>
      <point x="46" y="-231" type="line"/>
      <point x="165" y="-231"/>
      <point x="223" y="-177"/>
      <point x="223" y="-61" type="curve" smooth="yes"/>
      <point x="223" y="476" type="line"/>
      <point x="374" y="476" type="line"/>
      <point x="374" y="493" type="line"/>
      <point x="223" y="493" type="line"/>
      <point x="223" y="558" type="line" smooth="yes"/>
      <point x="223" y="636"/>
      <point x="259" y="685"/>
      <point x="321" y="685" type="curve" smooth="yes"/>
      <point x="350" y="685"/>
      <point x="382" y="673"/>
      <point x="404" y="653" type="curve"/>
      <point x="417" y="667" type="line"/>
      <point x="391" y="690"/>
      <point x="353" y="703"/>
      <point x="319" y="703" type="curve" smooth="yes"/>
      <point x="248" y="703"/>
      <point x="204" y="647"/>
      <point x="204" y="559" type="curve" smooth="yes"/>
      <point x="204" y="493" type="line"/>
      <point x="122" y="493" type="line"/>
      <point x="122" y="476" type="line"/>
      <point x="204" y="476" type="line"/>
      <point x="204" y="-61" type="line" smooth="yes"/>
      <point x="204" y="-167"/>
      <point x="156" y="-214"/>
      <point x="46" y="-214" type="curve"/>
    </contour>
  </outline>
</glyph>
<glyph name="Nhookleft" format="2">
  <advance width="651"/>
  <unicode hex="019D"/>
  <anchor x="318" y="0" name="bottom"/>
  <anchor x="318" y="697" name="top"/>
  <outline>
    <contour>
      <point x="97" y="0" type="line"/>
      <point x="118" y="0" type="line"/>
      <point x="118" y="672" type="line"/>
      <point x="117" y="672" type="line"/>
      <point x="525" y="0" type="line"/>
      <point x="554" y="0" type="line"/>
      <point x="554" y="697" type="line"/>
      <point x="533" y="697" type="line"/>
      <point x="533" y="25" type="line"/>
      <point x="533" y="25" type="line"/>
      <point x="125" y="697" type="line"/>
      <point x="97" y="697" type="line"/>
    </contour>
    <contour>
      <point x="-8" y="-160" type="line"/>
      <point x="78" y="-160"/>
      <point x="118" y="-108"/>
      <point x="118" y="-28" type="curve" smooth="yes"/>
      <point x="118" y="0" type="line"/>
      <point x="97" y="0" type="line"/>
      <point x="97" y="-7"/>
      <point x="97" y="-15"/>
      <point x="97" y="-35" type="curve" smooth="yes"/>
      <point x="97" y="-90"/>
      <point x="71" y="-143"/>
      <point x="-8" y="-143" type="curve"/>
    </contour>
  </outline>
</glyph>
<glyph name="jdotless" format="2">
  <advance width="200"/>
  <unicode hex="0237"/>
  <guideline x="511" y="-204" angle="0" name=""/>
  <anchor x="101" y="-254" name="bottom"/>
  <anchor x="101" y="493" name="top"/>
  <outline>
    <contour>
      <point x="37" y="-209" type="curve" smooth="yes"/>
      <point x="85" y="-209"/>
      <point x="110" y="-179"/>
      <point x="110" y="-111" type="curve" smooth="yes"/>
      <point x="110" y="493" type="line"/>
      <point x="90" y="493" type="line"/>
      <point x="90" y="-109" type="line" smooth="yes"/>
      <point x="90" y="-166"/>
      <point x="71" y="-191"/>
      <point x="32" y="-191" type="curve" smooth="yes"/>
      <point x="18" y="-191"/>
      <point x="1" y="-188"/>
      <point x="-22" y="-180" type="curve"/>
      <point x="-22" y="-199" type="line"/>
      <point x="-1" y="-205"/>
      <point x="20" y="-209"/>
    </contour>
  </outline>
</glyph>
<glyph name="caron" format="2">
  <advance width="417"/>
  <unicode hex="02C7"/>
  <outline>
    <contour>
      <point x="208" y="555" type="line"/>
      <point x="351" y="697" type="line"/>
      <point x="328" y="697" type="line"/>
      <point x="208" y="576" type="line"/>
      <point x="89" y="697" type="line"/>
      <point x="66" y="697" type="line"/>
    </contour>
  </outline>
</glyph>
<glyph name="breve" format="2">
  <advance width="424"/>
  <unicode hex="02D8"/>
  <outline>
    <contour>
      <point x="212" y="569" type="curve" smooth="yes"/>
      <point x="306" y="569"/>
      <point x="358" y="614"/>
      <point x="358" y="697" type="curve"/>
      <point x="341" y="697" type="line"/>
      <point x="341" y="623"/>
      <point x="295" y="584"/>
      <point x="212" y="584" type="curve" smooth="yes"/>
      <point x="129" y="584"/>
      <point x="83" y="623"/>
      <point x="83" y="697" type="curve"/>
      <point x="66" y="697" type="line"/>
      <point x="66" y="614"/>
      <point x="117" y="569"/>
    </contour>
  </outline>
</glyph>
<glyph name="hungarumlaut" format="2">
  <advance width="408"/>
  <unicode hex="02DD"/>
  <outline>
    <contour>
      <point x="215" y="556" type="line"/>
      <point x="234" y="556" type="line"/>
      <point x="342" y="697" type="line"/>
      <point x="320" y="697" type="line"/>
    </contour>
    <contour>
      <point x="66" y="556" type="line"/>
      <point x="85" y="556" type="line"/>
      <point x="191" y="697" type="line"/>
      <point x="171" y="697" type="line"/>
    </contour>
  </outline>
</glyph>
<glyph name="gravecomb" format="2">
  <advance width="258"/>
  <unicode hex="0300"/>
  <anchor x="183" y="493" name="_top"/>
  <anchor x="129" y="697" name="top"/>
  <outline>
    <contour>
      <point x="173" y="558" type="line"/>
      <point x="192" y="558" type="line"/>
      <point x="88" y="697" type="line"/>
      <point x="66" y="697" type="line"/>
    </contour>
  </outline>
</glyph>
<glyph name="acutecomb" format="2">
  <advance width="259"/>
  <unicode hex="0301"/>
  <anchor x="75" y="493" name="_top"/>
  <anchor x="129" y="697" name="top"/>
  <outline>
    <contour>
      <point x="66" y="558" type="line"/>
      <point x="85" y="558" type="line"/>
      <point x="193" y="697" type="line"/>
      <point x="171" y="697" type="line"/>
    </contour>
  </outline>
</glyph>
<glyph name="tildecomb" format="2">
  <advance width="434"/>
  <unicode hex="0303"/>
  <anchor x="218" y="493" name="_top"/>
  <anchor x="218" y="702" name="top"/>
  <outline>
    <contour>
      <point x="291" y="584" type="curve" smooth="yes"/>
      <point x="337" y="584"/>
      <point x="368" y="630"/>
      <point x="368" y="697" type="curve"/>
      <point x="352" y="697" type="line"/>
      <point x="352" y="640"/>
      <point x="327" y="600"/>
      <point x="292" y="600" type="curve" smooth="yes"/>
      <point x="218" y="600"/>
      <point x="228" y="702"/>
      <point x="147" y="702" type="curve" smooth="yes"/>
      <point x="97" y="702"/>
      <point x="66" y="662"/>
      <point x="66" y="597" type="curve"/>
      <point x="81" y="597" type="line"/>
      <point x="81" y="652"/>
      <point x="106" y="686"/>
      <point x="147" y="686" type="curve" smooth="yes"/>
      <point x="216" y="686"/>
      <point x="205" y="584"/>
    </contour>
  </outline>
</glyph>
<glyph name="macroncomb" format="2">
  <advance width="398"/>
  <unicode hex="0304"/>
  <anchor x="199" y="493" name="_top"/>
  <anchor x="199" y="646" name="top"/>
  <outline>
    <contour>
      <point x="66" y="631" type="line"/>
      <point x="332" y="631" type="line"/>
      <point x="332" y="646" type="line"/>
      <point x="66" y="646" type="line"/>
    </contour>
  </outline>
</glyph>
<glyph name="brevecomb" format="2">
  <advance width="424"/>
  <unicode hex="0306"/>
  <anchor x="212" y="493" name="_top"/>
  <anchor x="212" y="697" name="top"/>
  <outline>
    <contour>
      <point x="212" y="567" type="curve" smooth="yes"/>
      <point x="305" y="567"/>
      <point x="358" y="612"/>
      <point x="358" y="697" type="curve"/>
      <point x="342" y="697" type="line"/>
      <point x="342" y="622"/>
      <point x="296" y="583"/>
      <point x="212" y="583" type="curve" smooth="yes"/>
      <point x="128" y="583"/>
      <point x="82" y="622"/>
      <point x="82" y="697" type="curve"/>
      <point x="66" y="697" type="line"/>
      <point x="66" y="612"/>
      <point x="118" y="567"/>
    </contour>
  </outline>
</glyph>
<glyph name="hookabovecomb" format="2">
  <advance width="276"/>
  <unicode hex="0309"/>
  <anchor x="107" y="493" name="_top"/>
  <anchor x="139" y="698" name="top"/>
  <outline>
    <contour>
      <point x="101" y="532" type="line"/>
      <point x="155" y="544"/>
      <point x="210" y="560"/>
      <point x="210" y="612" type="curve" smooth="yes"/>
      <point x="210" y="665"/>
      <point x="152" y="698"/>
      <point x="81" y="698" type="curve" smooth="yes"/>
      <point x="66" y="698" type="line"/>
      <point x="66" y="682" type="line"/>
      <point x="81" y="682" type="line" smooth="yes"/>
      <point x="137" y="682"/>
      <point x="191" y="660"/>
      <point x="191" y="611" type="curve" smooth="yes"/>
      <point x="191" y="569"/>
      <point x="144" y="555"/>
      <point x="98" y="545" type="curve"/>
    </contour>
  </outline>
</glyph>
<glyph name="caroncomb" format="2">
  <advance width="417"/>
  <unicode hex="030C"/>
  <anchor x="208" y="493" name="_top"/>
  <anchor x="208" y="697" name="top"/>
  <outline>
    <contour>
      <point x="208" y="555" type="line"/>
      <point x="351" y="697" type="line"/>
      <point x="330" y="697" type="line"/>
      <point x="208" y="576" type="line"/>
      <point x="87" y="697" type="line"/>
      <point x="66" y="697" type="line"/>
    </contour>
  </outline>
</glyph>
<glyph name="commaturnedabovecomb" format="2">
  <advance width="264"/>
  <unicode hex="0312"/>
  <anchor x="132" y="493" name="_top"/>
  <anchor x="132" y="698" name="top"/>
  <outline>
    <contour>
      <point x="66" y="557" type="line"/>
      <point x="89" y="557" type="line"/>
      <point x="198" y="698" type="line"/>
      <point x="179" y="698" type="line"/>
    </contour>
  </outline>
</glyph>
<glyph name="dotbelowcomb" format="2">
  <advance width="159"/>
  <unicode hex="0323"/>
  <anchor x="80" y="0" name="_bottom"/>
  <anchor x="80" y="-174" name="bottom"/>
  <outline>
    <contour>
      <point x="66" y="-174" type="line"/>
      <point x="93" y="-174" type="line"/>
      <point x="93" y="-81" type="line"/>
      <point x="66" y="-81" type="line"/>
    </contour>
  </outline>
</glyph>
<glyph name="ogonekcomb" format="2">
  <advance width="282"/>
  <unicode hex="0328"/>
  <anchor x="181" y="0" name="_ogonek"/>
  <outline>
    <contour>
      <point x="137" y="-204" type="curve" smooth="yes"/>
      <point x="161" y="-204"/>
      <point x="190" y="-194"/>
      <point x="216" y="-173" type="curve"/>
      <point x="207" y="-161" type="line"/>
      <point x="185" y="-178"/>
      <point x="157" y="-188"/>
      <point x="136" y="-188" type="curve" smooth="yes"/>
      <point x="106" y="-188"/>
      <point x="81" y="-171"/>
      <point x="81" y="-136" type="curve" smooth="yes"/>
      <point x="81" y="-85"/>
      <point x="120" y="-38"/>
      <point x="181" y="0" type="curve"/>
      <point x="163" y="4" type="line"/>
      <point x="112" y="-29"/>
      <point x="66" y="-81"/>
      <point x="66" y="-137" type="curve" smooth="yes"/>
      <point x="66" y="-181"/>
      <point x="98" y="-204"/>
    </contour>
  </outline>
</glyph>
<glyph name="strokeshortcomb" format="2">
  <advance width="351"/>
  <unicode hex="0335"/>
  <anchor x="176" y="288" name="_center"/>
  <outline>
    <contour>
      <point x="66" y="280" type="line"/>
      <point x="285" y="280" type="line"/>
      <point x="285" y="296" type="line"/>
      <point x="66" y="296" type="line"/>
    </contour>
  </outline>
</glyph>
<glyph name="slashshortcomb" format="2">
  <advance width="338"/>
  <unicode hex="0337"/>
  <anchor x="169" y="411" name="_center"/>
  <outline>
    <contour>
      <point x="66" y="319" type="line"/>
      <point x="272" y="483" type="line"/>
      <point x="272" y="503" type="line"/>
      <point x="66" y="341" type="line"/>
    </contour>
  </outline>
</glyph>
<glyph name="slashlongcomb" format="2">
  <advance width="530"/>
  <unicode hex="0338"/>
  <anchor x="266" y="302" name="_center"/>
  <outline>
    <contour>
      <point x="66" y="0" type="line"/>
      <point x="81" y="0" type="line"/>
      <point x="464" y="603" type="line"/>
      <point x="449" y="603" type="line"/>
    </contour>
  </outline>
</glyph>
<glyph name="dieresistonos" format="2">
  <advance width="347"/>
  <unicode hex="0385"/>
  <anchor x="174" y="493" name="_top"/>
  <outline>
    <contour>
      <point x="66" y="603" type="line"/>
      <point x="88" y="603" type="line"/>
      <point x="88" y="697" type="line"/>
      <point x="66" y="697" type="line"/>
    </contour>
    <contour>
      <point x="259" y="603" type="line"/>
      <point x="281" y="603" type="line"/>
      <point x="281" y="697" type="line"/>
      <point x="259" y="697" type="line"/>
    </contour>
    <contour>
      <point x="173" y="624" type="line"/>
      <point x="239" y="804" type="line"/>
      <point x="222" y="808" type="line"/>
      <point x="160" y="629" type="line"/>
    </contour>
  </outline>
</glyph>
<glyph name="Delta" format="2">
  <advance width="630"/>
  <unicode hex="0394"/>
  <outline>
    <contour>
      <point x="59" y="0" type="line"/>
      <point x="571" y="0" type="line"/>
      <point x="327" y="697" type="line"/>
      <point x="301" y="697" type="line"/>
    </contour>
    <contour>
      <point x="89" y="19" type="line"/>
      <point x="315" y="675" type="line"/>
      <point x="541" y="19" type="line"/>
    </contour>
  </outline>
</glyph>
<glyph name="Germandbls" format="2">
  <advance width="700"/>
  <unicode hex="1E9E"/>
  <anchor x="350" y="0" name="bottom"/>
  <anchor x="350" y="697" name="top"/>
  <outline>
    <contour>
      <point x="97" y="0" type="line"/>
      <point x="117" y="0" type="line"/>
      <point x="117" y="678" type="line"/>
      <point x="609" y="678" type="line"/>
      <point x="609" y="697" type="line"/>
      <point x="97" y="697" type="line"/>
    </contour>
    <contour>
      <point x="427" y="-6" type="curve" smooth="yes"/>
      <point x="551" y="-6"/>
      <point x="639" y="74"/>
      <point x="639" y="183" type="curve" smooth="yes"/>
      <point x="639" y="297"/>
      <point x="544" y="337"/>
      <point x="439" y="377" type="curve" smooth="yes"/>
      <point x="347" y="412"/>
      <point x="264" y="444"/>
      <point x="264" y="539" type="curve" smooth="yes"/>
      <point x="264" y="621"/>
      <point x="328" y="679"/>
      <point x="425" y="680" type="curve"/>
      <point x="414" y="690" type="line"/>
      <point x="312" y="688"/>
      <point x="243" y="627"/>
      <point x="243" y="539" type="curve" smooth="yes"/>
      <point x="243" y="435"/>
      <point x="330" y="398"/>
      <point x="426" y="361" type="curve" smooth="yes"/>
      <point x="529" y="322"/>
      <point x="618" y="287"/>
      <point x="618" y="181" type="curve" smooth="yes"/>
      <point x="618" y="84"/>
      <point x="540" y="13"/>
      <point x="427" y="13" type="curve" smooth="yes"/>
      <point x="320" y="13"/>
      <point x="244" y="76"/>
      <point x="226" y="180" type="curve"/>
      <point x="206" y="175" type="line"/>
      <point x="225" y="64"/>
      <point x="310" y="-6"/>
    </contour>
  </outline>
</glyph>
<glyph name="endash" format="2">
  <advance width="357"/>
  <unicode hex="2013"/>
  <outline>
    <contour>
      <point x="9" y="308" type="line"/>
      <point x="348" y="308" type="line"/>
      <point x="348" y="325" type="line"/>
      <point x="9" y="325" type="line"/>
    </contour>
  </outline>
</glyph>
<glyph name="horizontalbar" format="2">
  <advance width="664"/>
  <unicode hex="2015"/>
  <outline>
    <contour>
      <point x="41" y="308" type="line"/>
      <point x="623" y="308" type="line"/>
      <point x="623" y="325" type="line"/>
      <point x="41" y="325" type="line"/>
    </contour>
  </outline>
</glyph>
<glyph name="quoteleft" format="2">
  <advance width="229"/>
  <unicode hex="2018"/>
  <outline>
    <contour>
      <point x="37" y="408" type="line"/>
      <point x="60" y="408" type="line"/>
      <point x="192" y="697" type="line"/>
      <point x="175" y="697" type="line"/>
    </contour>
  </outline>
</glyph>
<glyph name="quotedblright" format="2">
  <advance width="371"/>
  <unicode hex="201D"/>
  <outline>
    <contour>
      <point x="182" y="408" type="line"/>
      <point x="199" y="408" type="line"/>
      <point x="337" y="697" type="line"/>
      <point x="314" y="697" type="line"/>
    </contour>
    <contour>
      <point x="36" y="408" type="line"/>
      <point x="53" y="408" type="line"/>
      <point x="191" y="697" type="line"/>
      <point x="168" y="697" type="line"/>
    </contour>
  </outline>
</glyph>
<glyph name="dagger" format="2">
  <advance width="358"/>
  <unicode hex="2020"/>
  <outline>
    <contour>
      <point x="170" y="-101" type="line"/>
      <point x="188" y="-101" type="line"/>
      <point x="188" y="470" type="line"/>
      <point x="323" y="470" type="line"/>
      <point x="323" y="487" type="line"/>
      <point x="188" y="487" type="line"/>
      <point x="188" y="697" type="line"/>
      <point x="170" y="697" type="line"/>
      <point x="170" y="487" type="line"/>
      <point x="35" y="487" type="line"/>
      <point x="35" y="470" type="line"/>
      <point x="170" y="470" type="line"/>
    </contour>
  </outline>
</glyph>
<glyph name="bullet" format="2">
  <advance width="302"/>
  <unicode hex="2022"/>
  <outline>
    <contour>
      <point x="66" y="162" type="line"/>
      <point x="236" y="162" type="line"/>
      <point x="236" y="332" type="line"/>
      <point x="66" y="332" type="line"/>
    </contour>
  </outline>
</glyph>
<glyph name="guilsinglright" format="2">
  <advance width="204"/>
  <unicode hex="203A"/>
  <outline>
    <contour>
      <point x="14" y="87" type="line"/>
      <point x="200" y="253" type="line"/>
      <point x="14" y="417" type="line"/>
      <point x="14" y="394" type="line"/>
      <point x="173" y="253" type="line"/>
      <point x="14" y="110" type="line"/>
    </contour>
  </outline>
</glyph>
<glyph name="fraction" format="2">
  <advance width="71"/>
  <unicode hex="2044"/>
  <outline>
    <contour>
      <point x="-158" y="0" type="line"/>
      <point x="-139" y="0" type="line"/>
      <point x="229" y="697" type="line"/>
      <point x="210" y="697" type="line"/>
    </contour>
  </outline>
</glyph>
<glyph name="peso" format="2">
  <advance width="577"/>
  <unicode hex="20B1"/>
  <outline>
    <contour>
      <point x="103" y="0" type="line"/>
      <point x="123" y="0" type="line"/>
      <point x="123" y="318" type="line"/>
      <point x="270" y="318" type="line" smooth="yes"/>
      <point x="413" y="318"/>
      <point x="494" y="388"/>
      <point x="494" y="507" type="curve" smooth="yes"/>
      <point x="494" y="625"/>
      <point x="411" y="697"/>
      <point x="270" y="697" type="curve" smooth="yes"/>
      <point x="103" y="697" type="line"/>
    </contour>
    <contour>
      <point x="30" y="501" type="line"/>
      <point x="112" y="501" type="line"/>
      <point x="112" y="518" type="line"/>
      <point x="30" y="518" type="line"/>
    </contour>
    <contour>
      <point x="123" y="338" type="line"/>
      <point x="123" y="677" type="line"/>
      <point x="270" y="677" type="line" smooth="yes"/>
      <point x="398" y="677"/>
      <point x="474" y="614"/>
      <point x="474" y="507" type="curve" smooth="yes"/>
      <point x="474" y="398"/>
      <point x="400" y="338"/>
      <point x="270" y="338" type="curve" smooth="yes"/>
    </contour>
    <contour>
      <point x="487" y="501" type="line"/>
      <point x="550" y="501" type="line"/>
      <point x="550" y="518" type="line"/>
      <point x="487" y="518" type="line"/>
    </contour>
  </outline>
</glyph>
<glyph name="austral" format="2">
  <advance width="577"/>
  <unicode hex="20B3"/>
  <outline>
    <contour>
      <point x="38" y="0" type="line"/>
      <point x="61" y="0" type="line"/>
      <point x="289" y="675" type="line"/>
      <point x="516" y="0" type="line"/>
      <point x="540" y="0" type="line"/>
      <point x="301" y="697" type="line"/>
      <point x="275" y="697" type="line"/>
    </contour>
    <contour>
      <point x="16" y="194" type="line"/>
      <point x="561" y="194" type="line"/>
      <point x="561" y="210" type="line"/>
      <point x="16" y="210" type="line"/>
    </contour>
    <contour>
      <point x="16" y="353" type="line"/>
      <point x="561" y="353" type="line"/>
      <point x="561" y="369" type="line"/>
      <point x="16" y="369" type="line"/>
    </contour>
  </outline>
</glyph>
<glyph name="tenge" format="2">
  <advance width="577"/>
  <unicode hex="20B8"/>
  <outline>
    <contour>
      <point x="279" y="0" type="line"/>
      <point x="300" y="0" type="line"/>
      <point x="300" y="537" type="line"/>
      <point x="533" y="537" type="line"/>
      <point x="533" y="556" type="line"/>
      <point x="45" y="556" type="line"/>
      <point x="45" y="537" type="line"/>
      <point x="279" y="537" type="line"/>
    </contour>
    <contour>
      <point x="45" y="678" type="line"/>
      <point x="533" y="678" type="line"/>
      <point x="533" y="696" type="line"/>
      <point x="45" y="696" type="line"/>
    </contour>
  </outline>
</glyph>
<glyph name="ruble" format="2">
  <advance width="578"/>
  <unicode hex="20BD"/>
  <outline>
    <contour>
      <point x="137" y="0" type="line"/>
      <point x="157" y="0" type="line"/>
      <point x="157" y="176" type="line"/>
      <point x="313" y="176" type="line"/>
      <point x="313" y="194" type="line"/>
      <point x="157" y="194" type="line"/>
      <point x="157" y="319" type="line"/>
      <point x="307" y="319" type="line" smooth="yes"/>
      <point x="448" y="319"/>
      <point x="531" y="386"/>
      <point x="531" y="507" type="curve" smooth="yes"/>
      <point x="531" y="625"/>
      <point x="446" y="697"/>
      <point x="307" y="697" type="curve" smooth="yes"/>
      <point x="137" y="697" type="line"/>
      <point x="137" y="338" type="line"/>
      <point x="45" y="338" type="line"/>
      <point x="45" y="319" type="line"/>
      <point x="137" y="319" type="line"/>
      <point x="137" y="194" type="line"/>
      <point x="45" y="194" type="line"/>
      <point x="45" y="176" type="line"/>
      <point x="137" y="176" type="line"/>
    </contour>
    <contour>
      <point x="157" y="338" type="line"/>
      <point x="157" y="677" type="line"/>
      <point x="307" y="677" type="line" smooth="yes"/>
      <point x="432" y="677"/>
      <point x="510" y="615"/>
      <point x="510" y="507" type="curve" smooth="yes"/>
      <point x="510" y="397"/>
      <point x="434" y="338"/>
      <point x="307" y="338" type="curve" smooth="yes"/>
    </contour>
  </outline>
</glyph>
<glyph name="rightArrow" format="2">
  <advance width="1019"/>
  <unicode hex="2192"/>
  <outline>
    <contour>
      <point x="535" y="68" type="line"/>
      <point x="982" y="316" type="line"/>
      <point x="535" y="564" type="line"/>
      <point x="528" y="549" type="line"/>
      <point x="938" y="321" type="line"/>
      <point x="939" y="325" type="line"/>
      <point x="9" y="325" type="line"/>
      <point x="9" y="308" type="line"/>
      <point x="939" y="308" type="line"/>
      <point x="938" y="311" type="line"/>
      <point x="528" y="83" type="line"/>
    </contour>
  </outline>
</glyph>
<glyph name="partialdiff" format="2">
  <advance width="601"/>
  <unicode hex="2202"/>
  <outline>
    <contour>
      <point x="256" y="-5" type="curve" smooth="yes"/>
      <point x="454" y="-5"/>
      <point x="537" y="178"/>
      <point x="537" y="361" type="curve" smooth="yes"/>
      <point x="537" y="588"/>
      <point x="460" y="702"/>
      <point x="311" y="702" type="curve" smooth="yes"/>
      <point x="211" y="702"/>
      <point x="142" y="653"/>
      <point x="113" y="577" type="curve"/>
      <point x="130" y="571" type="line"/>
      <point x="158" y="645"/>
      <point x="226" y="685"/>
      <point x="310" y="685" type="curve" smooth="yes"/>
      <point x="445" y="685"/>
      <point x="516" y="583"/>
      <point x="518" y="371" type="curve" smooth="yes"/>
      <point x="518" y="346"/>
      <point x="517" y="311"/>
      <point x="515" y="300" type="curve"/>
      <point x="509" y="397"/>
      <point x="458" y="509"/>
      <point x="330" y="509" type="curve" smooth="yes"/>
      <point x="167" y="509"/>
      <point x="53" y="387"/>
      <point x="53" y="211" type="curve" smooth="yes"/>
      <point x="53" y="83"/>
      <point x="135" y="-5"/>
    </contour>
    <contour>
      <point x="257" y="13" type="curve" smooth="yes"/>
      <point x="147" y="13"/>
      <point x="72" y="93"/>
      <point x="72" y="211" type="curve" smooth="yes"/>
      <point x="72" y="376"/>
      <point x="176" y="491"/>
      <point x="331" y="491" type="curve" smooth="yes"/>
      <point x="478" y="491"/>
      <point x="519" y="333"/>
      <point x="504" y="235" type="curve"/>
      <point x="476" y="114"/>
      <point x="401" y="13"/>
    </contour>
  </outline>
</glyph>
<glyph name="product" format="2">
  <advance width="549"/>
  <unicode hex="220F"/>
  <outline>
    <contour>
      <point x="101" y="0" type="line"/>
      <point x="119" y="0" type="line"/>
      <point x="119" y="679" type="line"/>
      <point x="430" y="679" type="line"/>
      <point x="430" y="0" type="line"/>
      <point x="448" y="0" type="line"/>
      <point x="448" y="679" type="line"/>
      <point x="510" y="679" type="line"/>
      <point x="510" y="697" type="line"/>
      <point x="38" y="697" type="line"/>
      <point x="38" y="679" type="line"/>
      <point x="101" y="679" type="line"/>
    </contour>
  </outline>
</glyph>
<glyph name="divisionslash" format="2">
  <advance width="348"/>
  <unicode hex="2215"/>
  <outline>
    <contour>
      <point x="30" y="0" type="line"/>
      <point x="49" y="0" type="line"/>
      <point x="318" y="697" type="line"/>
      <point x="299" y="697" type="line"/>
    </contour>
  </outline>
</glyph>
<glyph name="integral" format="2">
  <advance width="469"/>
  <unicode hex="222B"/>
  <outline>
    <contour>
      <point x="34" y="-241" type="line"/>
      <point x="160" y="-241"/>
      <point x="220" y="-188"/>
      <point x="220" y="-68" type="curve" smooth="yes"/>
      <point x="220" y="556" type="line" smooth="yes"/>
      <point x="220" y="630"/>
      <point x="268" y="685"/>
      <point x="334" y="685" type="curve" smooth="yes"/>
      <point x="362" y="685"/>
      <point x="395" y="673"/>
      <point x="424" y="651" type="curve"/>
      <point x="435" y="665" type="line"/>
      <point x="403" y="690"/>
      <point x="367" y="703"/>
      <point x="334" y="703" type="curve" smooth="yes"/>
      <point x="259" y="703"/>
      <point x="201" y="640"/>
      <point x="201" y="556" type="curve" smooth="yes"/>
      <point x="201" y="-67" type="line" smooth="yes"/>
      <point x="201" y="-179"/>
      <point x="151" y="-223"/>
      <point x="34" y="-223" type="curve"/>
    </contour>
  </outline>
</glyph>
<glyph name="lessequal" format="2">
  <advance width="560"/>
  <unicode hex="2264"/>
  <outline>
    <contour>
      <point x="492" y="137" type="line"/>
      <point x="492" y="156" type="line"/>
      <point x="64" y="315" type="line"/>
      <point x="64" y="308" type="line"/>
      <point x="492" y="467" type="line"/>
      <point x="492" y="486" type="line"/>
      <point x="52" y="320" type="line"/>
      <point x="52" y="302" type="line"/>
    </contour>
    <contour>
      <point x="52" y="-4" type="line"/>
      <point x="492" y="-4" type="line"/>
      <point x="492" y="14" type="line"/>
      <point x="52" y="14" type="line"/>
    </contour>
  </outline>
</glyph>
<glyph name="fi" format="2">
  <advance width="450"/>
  <unicode hex="FB01"/>
  <anchor x="231" y="0" name="caret_1"/>
  <outline>
    <contour>
      <point x="99" y="0" type="line"/>
      <point x="119" y="0" type="line"/>
      <point x="119" y="476" type="line"/>
      <point x="348" y="476" type="line"/>
      <point x="348" y="493" type="line"/>
      <point x="119" y="493" type="line"/>
      <point x="119" y="537" type="line" smooth="yes"/>
      <point x="119" y="649"/>
      <point x="169" y="685"/>
      <point x="245" y="685" type="curve" smooth="yes"/>
      <point x="285" y="685"/>
      <point x="321" y="671"/>
      <point x="350" y="647" type="curve"/>
      <point x="361" y="660" type="line"/>
      <point x="327" y="686"/>
      <point x="290" y="702"/>
      <point x="245" y="702" type="curve" smooth="yes"/>
      <point x="161" y="702"/>
      <point x="99" y="659"/>
      <point x="99" y="538" type="curve" smooth="yes"/>
      <point x="99" y="493" type="line"/>
      <point x="10" y="493" type="line"/>
      <point x="10" y="476" type="line"/>
      <point x="99" y="476" type="line"/>
    </contour>
    <contour>
      <point x="343" y="0" type="line"/>
      <point x="363" y="0" type="line"/>
      <point x="363" y="493" type="line"/>
      <point x="343" y="493" type="line"/>
    </contour>
  </outline>
</glyph>
<glyph name="fl" format="2">
  <advance width="473"/>
  <unicode hex="FB02"/>
  <anchor x="215" y="0" name="caret_1"/>
  <outline>
    <contour>
      <point x="390" y="-5" type="curve" smooth="yes"/>
      <point x="407" y="-5"/>
      <point x="428" y="-1"/>
      <point x="449" y="5" type="curve"/>
      <point x="449" y="24" type="line"/>
      <point x="426" y="16"/>
      <point x="408" y="13"/>
      <point x="394" y="13" type="curve" smooth="yes"/>
      <point x="357" y="13"/>
      <point x="337" y="38"/>
      <point x="337" y="94" type="curve" smooth="yes"/>
      <point x="337" y="658" type="line"/>
      <point x="305" y="686"/>
      <point x="270" y="702"/>
      <point x="226" y="702" type="curve" smooth="yes"/>
      <point x="149" y="702"/>
      <point x="93" y="659"/>
      <point x="93" y="538" type="curve" smooth="yes"/>
      <point x="93" y="493" type="line"/>
      <point x="10" y="493" type="line"/>
      <point x="10" y="476" type="line"/>
      <point x="93" y="476" type="line"/>
      <point x="93" y="0" type="line"/>
      <point x="113" y="0" type="line"/>
      <point x="113" y="476" type="line"/>
      <point x="230" y="476" type="line"/>
      <point x="230" y="493" type="line"/>
      <point x="113" y="493" type="line"/>
      <point x="113" y="538" type="line" smooth="yes"/>
      <point x="113" y="649"/>
      <point x="158" y="685"/>
      <point x="227" y="685" type="curve" smooth="yes"/>
      <point x="262" y="685"/>
      <point x="292" y="672"/>
      <point x="317" y="650" type="curve"/>
      <point x="317" y="93" type="line" smooth="yes"/>
      <point x="317" y="25"/>
      <point x="343" y="-5"/>
    </contour>
  </outline>
</glyph>
<glyph name=".notdef" format="2">
  <advance width="513"/>
  <outline>
    <contour>
      <point x="50" y="0" type="line"/>
      <point x="463" y="0" type="line"/>
      <point x="463" y="476" type="line"/>
      <point x="50" y="476" type="line"/>
    </contour>
    <contour>
      <point x="63" y="13" type="line"/>
      <point x="63" y="463" type="line"/>
      <point x="451" y="463" type="line"/>
      <point x="451" y="13" type="line"/>
    </contour>
  </outline>
</glyph>
<glyph name="brevecomb_acutecomb" format="2">
  <advance width="424"/>
  <guideline x="392" y="847" angle="0" name=""/>
  <guideline x="430" y="784" angle="0" name=""/>
  <anchor x="212" y="493" name="_top"/>
  <anchor x="212" y="809" name="top"/>
  <outline>
    <contour>
      <point x="212" y="567" type="curve" smooth="yes"/>
      <point x="305" y="567"/>
      <point x="358" y="612"/>
      <point x="358" y="697" type="curve"/>
      <point x="342" y="697" type="line"/>
      <point x="342" y="622"/>
      <point x="296" y="583"/>
      <point x="212" y="583" type="curve" smooth="yes"/>
      <point x="128" y="583"/>
      <point x="82" y="622"/>
      <point x="82" y="697" type="curve"/>
      <point x="66" y="697" type="line"/>
      <point x="66" y="612"/>
      <point x="118" y="567"/>
    </contour>
    <contour>
      <point x="185" y="671" type="line"/>
      <point x="202" y="671" type="line"/>
      <point x="286" y="809" type="line"/>
      <point x="267" y="809" type="line"/>
    </contour>
  </outline>
</glyph>
<glyph name="brevecomb_gravecomb.case" format="2">
  <advance width="424"/>
  <guideline x="392" y="847" angle="0" name=""/>
  <guideline x="430" y="784" angle="0" name=""/>
  <guideline x="342" y="981" angle="0" name=""/>
  <guideline x="258" y="1000" angle="0" name=""/>
  <anchor x="212" y="697" name="_top"/>
  <anchor x="212" y="1051" name="top"/>
  <outline>
    <contour>
      <point x="212" y="743" type="curve" smooth="yes"/>
      <point x="306" y="743"/>
      <point x="358" y="788"/>
      <point x="358" y="871" type="curve"/>
      <point x="342" y="871" type="line"/>
      <point x="342" y="797"/>
      <point x="296" y="758"/>
      <point x="212" y="758" type="curve" smooth="yes"/>
      <point x="128" y="758"/>
      <point x="82" y="797"/>
      <point x="82" y="871" type="curve"/>
      <point x="66" y="871" type="line"/>
      <point x="66" y="788"/>
      <point x="117" y="743"/>
    </contour>
    <contour>
      <point x="222" y="845" type="line"/>
      <point x="239" y="845" type="line"/>
      <point x="158" y="982" type="line"/>
      <point x="138" y="982" type="line"/>
    </contour>
  </outline>
</glyph>
<glyph name="brevecomb_tildecomb.case" format="2">
  <advance width="424"/>
  <guideline x="214" y="748" angle="0" name=""/>
  <anchor x="212" y="697" name="_top"/>
  <anchor x="212" y="967" name="top"/>
  <outline>
    <contour>
      <point x="212" y="743" type="curve" smooth="yes"/>
      <point x="306" y="743"/>
      <point x="358" y="788"/>
      <point x="358" y="871" type="curve"/>
      <point x="342" y="871" type="line"/>
      <point x="342" y="797"/>
      <point x="296" y="758"/>
      <point x="212" y="758" type="curve" smooth="yes"/>
      <point x="128" y="758"/>
      <point x="82" y="797"/>
      <point x="82" y="871" type="curve"/>
      <point x="66" y="871" type="line"/>
      <point x="66" y="788"/>
      <point x="117" y="743"/>
    </contour>
    <contour>
      <point x="276" y="902" type="curve" smooth="yes"/>
      <point x="322" y="902"/>
      <point x="342" y="928"/>
      <point x="353" y="957" type="curve"/>
      <point x="337" y="960" type="line"/>
      <point x="326" y="931"/>
      <point x="307" y="918"/>
      <point x="276" y="918" type="curve" smooth="yes"/>
      <point x="220" y="918"/>
      <point x="210" y="965"/>
      <point x="147" y="965" type="curve" smooth="yes"/>
      <point x="102" y="965"/>
      <point x="82" y="938"/>
      <point x="72" y="910" type="curve"/>
      <point x="87" y="907" type="line"/>
      <point x="98" y="936"/>
      <point x="117" y="950"/>
      <point x="147" y="950" type="curve" smooth="yes"/>
      <point x="203" y="950"/>
      <point x="211" y="902"/>
    </contour>
  </outline>
</glyph>
<glyph name="brevecomb_tildecomb" format="2">
  <advance width="424"/>
  <guideline x="343" y="784" angle="0" name=""/>
  <anchor x="212" y="493" name="_top"/>
  <anchor x="212" y="792" name="top"/>
  <outline>
    <contour>
      <point x="212" y="567" type="curve" smooth="yes"/>
      <point x="305" y="567"/>
      <point x="358" y="612"/>
      <point x="358" y="697" type="curve"/>
      <point x="342" y="697" type="line"/>
      <point x="342" y="622"/>
      <point x="296" y="583"/>
      <point x="212" y="583" type="curve" smooth="yes"/>
      <point x="128" y="583"/>
      <point x="82" y="622"/>
      <point x="82" y="697" type="curve"/>
      <point x="66" y="697" type="line"/>
      <point x="66" y="612"/>
      <point x="118" y="567"/>
    </contour>
    <contour>
      <point x="276" y="730" type="curve" smooth="yes"/>
      <point x="323" y="730"/>
      <point x="342" y="757"/>
      <point x="353" y="784" type="curve"/>
      <point x="337" y="788" type="line"/>
      <point x="326" y="758"/>
      <point x="306" y="745"/>
      <point x="276" y="745" type="curve" smooth="yes"/>
      <point x="220" y="745"/>
      <point x="210" y="792"/>
      <point x="147" y="792" type="curve" smooth="yes"/>
      <point x="105" y="792"/>
      <point x="83" y="769"/>
      <point x="72" y="738" type="curve"/>
      <point x="87" y="734" type="line"/>
      <point x="97" y="761"/>
      <point x="114" y="777"/>
      <point x="148" y="777" type="curve" smooth="yes"/>
      <point x="205" y="777"/>
      <point x="212" y="730"/>
    </contour>
  </outline>
</glyph>
<glyph name="caroncomb.alt" format="2">
  <advance width="213"/>
  <anchor x="107" y="493" name="_topright"/>
  <outline>
    <contour>
      <point x="66" y="504" type="line"/>
      <point x="82" y="504" type="line"/>
      <point x="147" y="697" type="line"/>
      <point x="126" y="697" type="line"/>
    </contour>
  </outline>
</glyph>
<glyph name="circumflexcomb_acutecomb" format="2">
  <advance width="464"/>
  <guideline x="430" y="784" angle="0" name=""/>
  <anchor x="209" y="493" name="_top"/>
  <anchor x="209" y="784" name="top"/>
  <outline>
    <contour>
      <point x="66" y="556" type="line"/>
      <point x="88" y="556" type="line"/>
      <point x="209" y="675" type="line"/>
      <point x="329" y="556" type="line"/>
      <point x="352" y="556" type="line"/>
      <point x="209" y="697" type="line"/>
    </contour>
    <contour>
      <point x="296" y="646" type="line"/>
      <point x="313" y="646" type="line"/>
      <point x="398" y="784" type="line"/>
      <point x="378" y="784" type="line"/>
    </contour>
  </outline>
</glyph>
<glyph name="circumflexcomb_gravecomb" format="2">
  <advance width="441"/>
  <guideline x="430" y="784" angle="0" name=""/>
  <anchor x="209" y="493" name="_top"/>
  <anchor x="209" y="784" name="top"/>
  <outline>
    <contour>
      <point x="66" y="556" type="line"/>
      <point x="90" y="556" type="line"/>
      <point x="209" y="675" type="line"/>
      <point x="328" y="556" type="line"/>
      <point x="352" y="556" type="line"/>
      <point x="209" y="697" type="line"/>
    </contour>
    <contour>
      <point x="357" y="646" type="line"/>
      <point x="375" y="646" type="line"/>
      <point x="293" y="784" type="line"/>
      <point x="273" y="784" type="line"/>
    </contour>
  </outline>
</glyph>
<glyph name="circumflexcomb_hookabovecomb.case" format="2">
  <advance width="471"/>
  <guideline x="430" y="784" angle="0" name=""/>
  <guideline x="214" y="748" angle="0" name=""/>
  <anchor x="209" y="697" name="_top"/>
  <anchor x="235" y="1000" name="top"/>
  <outline>
    <contour>
      <point x="66" y="747" type="line"/>
      <point x="90" y="747" type="line"/>
      <point x="209" y="867" type="line"/>
      <point x="328" y="747" type="line"/>
      <point x="352" y="747" type="line"/>
      <point x="209" y="888" type="line"/>
    </contour>
    <contour>
      <point x="299" y="826" type="line"/>
      <point x="356" y="838"/>
      <point x="405" y="852"/>
      <point x="405" y="906" type="curve" smooth="yes"/>
      <point x="405" y="959"/>
      <point x="349" y="992"/>
      <point x="278" y="992" type="curve" smooth="yes"/>
      <point x="263" y="992" type="line"/>
      <point x="263" y="977" type="line"/>
      <point x="278" y="977" type="line" smooth="yes"/>
      <point x="334" y="977"/>
      <point x="390" y="953"/>
      <point x="390" y="906" type="curve" smooth="yes"/>
      <point x="390" y="862"/>
      <point x="346" y="849"/>
      <point x="295" y="839" type="curve"/>
    </contour>
  </outline>
</glyph>
<glyph name="circumflexcomb_hookabovecomb" format="2">
  <advance width="470"/>
  <guideline x="430" y="784" angle="0" name=""/>
  <anchor x="209" y="493" name="_top"/>
  <anchor x="211" y="808" name="top"/>
  <outline>
    <contour>
      <point x="66" y="556" type="line"/>
      <point x="90" y="556" type="line"/>
      <point x="209" y="675" type="line"/>
      <point x="328" y="556" type="line"/>
      <point x="352" y="556" type="line"/>
      <point x="209" y="697" type="line"/>
    </contour>
    <contour>
      <point x="298" y="636" type="line"/>
      <point x="355" y="647"/>
      <point x="404" y="663"/>
      <point x="404" y="716" type="curve" smooth="yes"/>
      <point x="404" y="768"/>
      <point x="348" y="801"/>
      <point x="277" y="801" type="curve" smooth="yes"/>
      <point x="262" y="801" type="line"/>
      <point x="262" y="787" type="line"/>
      <point x="277" y="787" type="line" smooth="yes"/>
      <point x="334" y="787"/>
      <point x="389" y="762"/>
      <point x="389" y="715" type="curve" smooth="yes"/>
      <point x="389" y="672"/>
      <point x="344" y="658"/>
      <point x="294" y="649" type="curve"/>
    </contour>
  </outline>
</glyph>
<glyph name="colon.ss03" format="2">
  <advance width="249"/>
  <outline>
    <contour>
      <point x="125" y="400" type="curve" smooth="yes"/>
      <point x="138" y="400"/>
      <point x="149" y="411"/>
      <point x="149" y="424" type="curve" smooth="yes"/>
      <point x="149" y="438"/>
      <point x="138" y="449"/>
      <point x="125" y="449" type="curve" smooth="yes"/>
      <point x="111" y="449"/>
      <point x="100" y="437"/>
      <point x="100" y="424" type="curve" smooth="yes"/>
      <point x="100" y="411"/>
      <point x="111" y="400"/>
    </contour>
    <contour>
      <point x="125" y="-5" type="curve" smooth="yes"/>
      <point x="138" y="-5"/>
      <point x="149" y="6"/>
      <point x="149" y="19" type="curve" smooth="yes"/>
      <point x="149" y="33"/>
      <point x="138" y="44"/>
      <point x="125" y="44" type="curve" smooth="yes"/>
      <point x="111" y="44"/>
      <point x="100" y="33"/>
      <point x="100" y="19" type="curve" smooth="yes"/>
      <point x="100" y="6"/>
      <point x="111" y="-5"/>
    </contour>
  </outline>
</glyph>
<glyph name="dieresis.ss03" format="2">
  <advance width="378"/>
  <anchor x="189" y="493" name="_top"/>
  <anchor x="189" y="702" name="top"/>
  <outline>
    <contour>
      <point x="287" y="653" type="curve" smooth="yes"/>
      <point x="301" y="653"/>
      <point x="312" y="665"/>
      <point x="312" y="678" type="curve" smooth="yes"/>
      <point x="312" y="691"/>
      <point x="301" y="702"/>
      <point x="287" y="702" type="curve" smooth="yes"/>
      <point x="274" y="702"/>
      <point x="263" y="691"/>
      <point x="263" y="678" type="curve" smooth="yes"/>
      <point x="263" y="665"/>
      <point x="274" y="653"/>
    </contour>
    <contour>
      <point x="91" y="653" type="curve" smooth="yes"/>
      <point x="104" y="653"/>
      <point x="115" y="665"/>
      <point x="115" y="678" type="curve" smooth="yes"/>
      <point x="115" y="691"/>
      <point x="104" y="702"/>
      <point x="91" y="702" type="curve" smooth="yes"/>
      <point x="77" y="702"/>
      <point x="66" y="691"/>
      <point x="66" y="678" type="curve" smooth="yes"/>
      <point x="66" y="665"/>
      <point x="77" y="653"/>
    </contour>
  </outline>
</glyph>
<glyph name="divide.ss03" format="2">
  <advance width="560"/>
  <outline>
    <contour>
      <point x="73" y="300" type="line"/>
      <point x="473" y="300" type="line"/>
      <point x="473" y="317" type="line"/>
      <point x="73" y="317" type="line"/>
    </contour>
    <contour>
      <point x="272" y="84" type="curve" smooth="yes"/>
      <point x="286" y="84"/>
      <point x="297" y="95"/>
      <point x="297" y="108" type="curve" smooth="yes"/>
      <point x="297" y="122"/>
      <point x="285" y="133"/>
      <point x="272" y="133" type="curve" smooth="yes"/>
      <point x="259" y="133"/>
      <point x="248" y="122"/>
      <point x="248" y="108" type="curve" smooth="yes"/>
      <point x="248" y="95"/>
      <point x="259" y="84"/>
    </contour>
    <contour>
      <point x="272" y="484" type="curve" smooth="yes"/>
      <point x="286" y="484"/>
      <point x="297" y="496"/>
      <point x="297" y="509" type="curve" smooth="yes"/>
      <point x="297" y="522"/>
      <point x="286" y="534"/>
      <point x="272" y="534" type="curve" smooth="yes"/>
      <point x="259" y="534"/>
      <point x="248" y="522"/>
      <point x="248" y="509" type="curve" smooth="yes"/>
      <point x="248" y="496"/>
      <point x="259" y="484"/>
    </contour>
  </outline>
</glyph>
<glyph name="dotaccentcomb.ss03" format="2">
  <advance width="181"/>
  <anchor x="91" y="493" name="_top"/>
  <anchor x="91" y="702" name="top"/>
  <outline>
    <contour>
      <point x="91" y="653" type="curve" smooth="yes"/>
      <point x="104" y="653"/>
      <point x="115" y="665"/>
      <point x="115" y="678" type="curve" smooth="yes"/>
      <point x="115" y="691"/>
      <point x="104" y="702"/>
      <point x="91" y="702" type="curve" smooth="yes"/>
      <point x="77" y="702"/>
      <point x="66" y="691"/>
      <point x="66" y="678" type="curve" smooth="yes"/>
      <point x="66" y="665"/>
      <point x="77" y="653"/>
    </contour>
  </outline>
</glyph>
<glyph name="exclam.ss03" format="2">
  <advance width="159"/>
  <outline>
    <contour>
      <point x="71" y="185" type="line"/>
      <point x="89" y="185" type="line"/>
      <point x="90" y="697" type="line"/>
      <point x="70" y="697" type="line"/>
    </contour>
    <contour>
      <point x="80" y="-5" type="curve" smooth="yes"/>
      <point x="93" y="-5"/>
      <point x="104" y="6"/>
      <point x="104" y="19" type="curve" smooth="yes"/>
      <point x="104" y="33"/>
      <point x="93" y="44"/>
      <point x="80" y="44" type="curve" smooth="yes"/>
      <point x="66" y="44"/>
      <point x="55" y="33"/>
      <point x="55" y="19" type="curve" smooth="yes"/>
      <point x="55" y="6"/>
      <point x="66" y="-5"/>
    </contour>
  </outline>
</glyph>
<glyph name="f_f_i" format="2">
  <advance width="691"/>
  <anchor x="231" y="0" name="caret_1"/>
  <anchor x="473" y="0" name="caret_2"/>
  <outline>
    <contour>
      <point x="99" y="0" type="line"/>
      <point x="119" y="0" type="line"/>
      <point x="119" y="476" type="line"/>
      <point x="342" y="476" type="line"/>
      <point x="342" y="0" type="line"/>
      <point x="362" y="0" type="line"/>
      <point x="362" y="476" type="line"/>
      <point x="584" y="476" type="line"/>
      <point x="584" y="0" type="line"/>
      <point x="604" y="0" type="line"/>
      <point x="604" y="493" type="line"/>
      <point x="362" y="493" type="line"/>
      <point x="362" y="538" type="line" smooth="yes"/>
      <point x="362" y="649"/>
      <point x="409" y="685"/>
      <point x="487" y="685" type="curve" smooth="yes"/>
      <point x="529" y="685"/>
      <point x="564" y="669"/>
      <point x="590" y="647" type="curve"/>
      <point x="601" y="660" type="line"/>
      <point x="569" y="686"/>
      <point x="532" y="702"/>
      <point x="486" y="702" type="curve" smooth="yes"/>
      <point x="444" y="702"/>
      <point x="411" y="692"/>
      <point x="384" y="668" type="curve"/>
      <point x="350" y="691"/>
      <point x="313" y="702"/>
      <point x="268" y="702" type="curve" smooth="yes"/>
      <point x="170" y="702"/>
      <point x="99" y="640"/>
      <point x="99" y="547" type="curve" smooth="yes"/>
      <point x="99" y="493" type="line"/>
      <point x="10" y="493" type="line"/>
      <point x="10" y="476" type="line"/>
      <point x="99" y="476" type="line"/>
    </contour>
    <contour>
      <point x="119" y="493" type="line"/>
      <point x="119" y="547" type="line" smooth="yes"/>
      <point x="119" y="630"/>
      <point x="179" y="685"/>
      <point x="269" y="685" type="curve" smooth="yes"/>
      <point x="308" y="685"/>
      <point x="342" y="675"/>
      <point x="374" y="654" type="curve"/>
      <point x="353" y="631"/>
      <point x="342" y="591"/>
      <point x="342" y="538" type="curve" smooth="yes"/>
      <point x="342" y="493" type="line"/>
    </contour>
  </outline>
</glyph>
<glyph name="f_f_l" format="2">
  <advance width="739"/>
  <anchor x="231" y="0" name="caret_1"/>
  <anchor x="473" y="0" name="caret_2"/>
  <outline>
    <contour>
      <point x="657" y="-5" type="curve" smooth="yes"/>
      <point x="676" y="-5"/>
      <point x="694" y="-1"/>
      <point x="715" y="5" type="curve"/>
      <point x="715" y="24" type="line"/>
      <point x="696" y="17"/>
      <point x="677" y="13"/>
      <point x="662" y="13" type="curve" smooth="yes"/>
      <point x="623" y="13"/>
      <point x="604" y="38"/>
      <point x="604" y="95" type="curve" smooth="yes"/>
      <point x="604" y="659" type="line"/>
      <point x="571" y="685"/>
      <point x="533" y="702"/>
      <point x="486" y="702" type="curve" smooth="yes"/>
      <point x="441" y="702"/>
      <point x="407" y="690"/>
      <point x="385" y="669" type="curve"/>
      <point x="351" y="691"/>
      <point x="314" y="702"/>
      <point x="268" y="702" type="curve" smooth="yes"/>
      <point x="170" y="702"/>
      <point x="99" y="640"/>
      <point x="99" y="547" type="curve" smooth="yes"/>
      <point x="99" y="493" type="line"/>
      <point x="10" y="493" type="line"/>
      <point x="10" y="476" type="line"/>
      <point x="99" y="476" type="line"/>
      <point x="99" y="0" type="line"/>
      <point x="119" y="0" type="line"/>
      <point x="119" y="476" type="line"/>
      <point x="342" y="476" type="line"/>
      <point x="342" y="0" type="line"/>
      <point x="362" y="0" type="line"/>
      <point x="362" y="476" type="line"/>
      <point x="489" y="476" type="line"/>
      <point x="489" y="493" type="line"/>
      <point x="362" y="493" type="line"/>
      <point x="362" y="538" type="line" smooth="yes"/>
      <point x="362" y="649"/>
      <point x="409" y="685"/>
      <point x="487" y="685" type="curve" smooth="yes"/>
      <point x="525" y="685"/>
      <point x="559" y="671"/>
      <point x="584" y="652" type="curve"/>
      <point x="584" y="93" type="line" smooth="yes"/>
      <point x="584" y="26"/>
      <point x="609" y="-5"/>
    </contour>
    <contour>
      <point x="119" y="493" type="line"/>
      <point x="119" y="546" type="line" smooth="yes"/>
      <point x="119" y="630"/>
      <point x="179" y="685"/>
      <point x="269" y="685" type="curve" smooth="yes"/>
      <point x="305" y="685"/>
      <point x="342" y="676"/>
      <point x="374" y="654" type="curve"/>
      <point x="354" y="629"/>
      <point x="342" y="592"/>
      <point x="342" y="538" type="curve" smooth="yes"/>
      <point x="342" y="493" type="line"/>
    </contour>
  </outline>
</glyph>
<glyph name="five.numr" format="2">
  <advance width="347"/>
  <outline>
    <contour>
      <point x="172" y="275" type="curve" smooth="yes"/>
      <point x="250" y="275"/>
      <point x="311" y="339"/>
      <point x="311" y="417" type="curve" smooth="yes"/>
      <point x="311" y="493"/>
      <point x="256" y="554"/>
      <point x="181" y="554" type="curve" smooth="yes"/>
      <point x="137" y="554"/>
      <point x="98" y="532"/>
      <point x="68" y="494" type="curve"/>
      <point x="71" y="496" type="line"/>
      <point x="103" y="688" type="line"/>
      <point x="93" y="680" type="line"/>
      <point x="291" y="680" type="line"/>
      <point x="291" y="697" type="line"/>
      <point x="87" y="697" type="line"/>
      <point x="51" y="485" type="line"/>
      <point x="72" y="477" type="line"/>
      <point x="97" y="514"/>
      <point x="138" y="536"/>
      <point x="180" y="536" type="curve" smooth="yes"/>
      <point x="245" y="536"/>
      <point x="293" y="485"/>
      <point x="293" y="417" type="curve" smooth="yes"/>
      <point x="293" y="350"/>
      <point x="241" y="293"/>
      <point x="172" y="293" type="curve" smooth="yes"/>
      <point x="114" y="293"/>
      <point x="67" y="333"/>
      <point x="55" y="394" type="curve"/>
      <point x="37" y="391" type="line"/>
      <point x="54" y="315"/>
      <point x="112" y="275"/>
    </contour>
  </outline>
</glyph>
<glyph name="nine.lf" format="2">
  <advance width="550"/>
  <outline>
    <contour>
      <point x="229" y="0" type="line"/>
      <point x="250" y="0" type="line"/>
      <point x="461" y="363" type="line" smooth="yes"/>
      <point x="480" y="396"/>
      <point x="496" y="432"/>
      <point x="496" y="483" type="curve" smooth="yes"/>
      <point x="496" y="604"/>
      <point x="396" y="702"/>
      <point x="274" y="702" type="curve" smooth="yes"/>
      <point x="152" y="702"/>
      <point x="53" y="603"/>
      <point x="53" y="482" type="curve" smooth="yes"/>
      <point x="53" y="361"/>
      <point x="153" y="262"/>
      <point x="273" y="262" type="curve" smooth="yes"/>
      <point x="327" y="262"/>
      <point x="377" y="283"/>
      <point x="416" y="317" type="curve"/>
      <point x="414" y="321" type="line"/>
    </contour>
    <contour>
      <point x="274" y="280" type="curve" smooth="yes"/>
      <point x="164" y="280"/>
      <point x="73" y="371"/>
      <point x="73" y="481" type="curve" smooth="yes"/>
      <point x="73" y="593"/>
      <point x="164" y="683"/>
      <point x="274" y="683" type="curve" smooth="yes"/>
      <point x="385" y="683"/>
      <point x="475" y="594"/>
      <point x="475" y="482" type="curve" smooth="yes"/>
      <point x="475" y="370"/>
      <point x="383" y="280"/>
    </contour>
  </outline>
</glyph>
<glyph name="nine.numr" format="2">
  <advance width="335"/>
  <outline>
    <contour>
      <point x="135" y="279" type="line"/>
      <point x="154" y="279" type="line"/>
      <point x="280" y="495" type="line" smooth="yes"/>
      <point x="291" y="514"/>
      <point x="301" y="536"/>
      <point x="301" y="567" type="curve" smooth="yes"/>
      <point x="301" y="641"/>
      <point x="239" y="701"/>
      <point x="168" y="701" type="curve" smooth="yes"/>
      <point x="94" y="701"/>
      <point x="33" y="639"/>
      <point x="33" y="566" type="curve" smooth="yes"/>
      <point x="33" y="496"/>
      <point x="94" y="434"/>
      <point x="167" y="434" type="curve" smooth="yes"/>
      <point x="197" y="434"/>
      <point x="227" y="448"/>
      <point x="248" y="465" type="curve"/>
      <point x="247" y="468" type="line"/>
    </contour>
    <contour>
      <point x="168" y="450" type="curve" smooth="yes"/>
      <point x="104" y="450"/>
      <point x="51" y="503"/>
      <point x="51" y="566" type="curve" smooth="yes"/>
      <point x="51" y="630"/>
      <point x="104" y="684"/>
      <point x="168" y="684" type="curve" smooth="yes"/>
      <point x="231" y="684"/>
      <point x="284" y="631"/>
      <point x="284" y="566" type="curve" smooth="yes"/>
      <point x="284" y="503"/>
      <point x="231" y="450"/>
    </contour>
  </outline>
</glyph>
<glyph name="one.dnom" format="2">
  <advance width="227"/>
  <outline>
    <contour>
      <point x="130" y="0" type="line"/>
      <point x="147" y="0" type="line"/>
      <point x="147" y="418" type="line"/>
      <point x="130" y="418" type="line"/>
      <point x="17" y="350" type="line"/>
      <point x="17" y="334" type="line"/>
      <point x="130" y="399" type="line"/>
    </contour>
  </outline>
</glyph>
<glyph name="one.lf" format="2">
  <advance width="310"/>
  <outline>
    <contour>
      <point x="210" y="0" type="line"/>
      <point x="230" y="0" type="line"/>
      <point x="230" y="697" type="line"/>
      <point x="210" y="697" type="line"/>
      <point x="23" y="582" type="line"/>
      <point x="23" y="564" type="line"/>
      <point x="210" y="671" type="line"/>
    </contour>
  </outline>
</glyph>
<glyph name="question.ss03" format="2">
  <advance width="420"/>
  <outline>
    <contour>
      <point x="198" y="183" type="line"/>
      <point x="217" y="183" type="line"/>
      <point x="217" y="269" type="line" smooth="yes"/>
      <point x="217" y="395"/>
      <point x="402" y="361"/>
      <point x="402" y="531" type="curve" smooth="yes"/>
      <point x="402" y="641"/>
      <point x="327" y="702"/>
      <point x="204" y="702" type="curve" smooth="yes"/>
      <point x="91" y="702"/>
      <point x="13" y="635"/>
      <point x="12" y="528" type="curve"/>
      <point x="31" y="528" type="line"/>
      <point x="32" y="628"/>
      <point x="104" y="684"/>
      <point x="204" y="684" type="curve" smooth="yes"/>
      <point x="318" y="684"/>
      <point x="383" y="629"/>
      <point x="383" y="531" type="curve" smooth="yes"/>
      <point x="383" y="377"/>
      <point x="198" y="409"/>
      <point x="198" y="270" type="curve" smooth="yes"/>
    </contour>
    <contour>
      <point x="208" y="-5" type="curve" smooth="yes"/>
      <point x="221" y="-5"/>
      <point x="232" y="6"/>
      <point x="232" y="19" type="curve" smooth="yes"/>
      <point x="232" y="33"/>
      <point x="221" y="44"/>
      <point x="208" y="44" type="curve" smooth="yes"/>
      <point x="194" y="44"/>
      <point x="183" y="32"/>
      <point x="183" y="19" type="curve" smooth="yes"/>
      <point x="183" y="6"/>
      <point x="194" y="-5"/>
    </contour>
  </outline>
</glyph>
<glyph name="semicolon.ss03" format="2">
  <advance width="249"/>
  <outline>
    <contour>
      <point x="29" y="-161" type="line"/>
      <point x="46" y="-161" type="line"/>
      <point x="184" y="128" type="line"/>
      <point x="162" y="128" type="line"/>
    </contour>
    <contour>
      <point x="163" y="400" type="curve" smooth="yes"/>
      <point x="177" y="400"/>
      <point x="188" y="411"/>
      <point x="188" y="424" type="curve" smooth="yes"/>
      <point x="188" y="438"/>
      <point x="176" y="449"/>
      <point x="163" y="449" type="curve" smooth="yes"/>
      <point x="150" y="449"/>
      <point x="138" y="438"/>
      <point x="138" y="424" type="curve" smooth="yes"/>
      <point x="138" y="411"/>
      <point x="149" y="400"/>
    </contour>
  </outline>
</glyph>
<glyph name="seven.dnom" format="2">
  <advance width="337"/>
  <outline>
    <contour>
      <point x="79" y="0" type="line"/>
      <point x="98" y="0" type="line"/>
      <point x="315" y="401" type="line"/>
      <point x="315" y="418" type="line"/>
      <point x="19" y="418" type="line"/>
      <point x="19" y="401" type="line"/>
      <point x="302" y="401" type="line"/>
      <point x="298" y="404" type="line"/>
    </contour>
  </outline>
</glyph>
<glyph name="slashshortcomb.case" format="2">
  <advance width="426"/>
  <anchor x="213" y="356" name="_center"/>
  <outline>
    <contour>
      <point x="67" y="229" type="line"/>
      <point x="360" y="460" type="line"/>
      <point x="360" y="483" type="line"/>
      <point x="66" y="251" type="line"/>
    </contour>
  </outline>
</glyph>
<glyph name="three.lf" format="2">
  <advance width="579"/>
  <outline>
    <contour>
      <point x="287" y="-5" type="curve" smooth="yes"/>
      <point x="423" y="-5"/>
      <point x="516" y="74"/>
      <point x="516" y="192" type="curve" smooth="yes"/>
      <point x="516" y="320"/>
      <point x="402" y="364"/>
      <point x="313" y="371" type="curve"/>
      <point x="381" y="379"/>
      <point x="480" y="415"/>
      <point x="480" y="532" type="curve" smooth="yes"/>
      <point x="480" y="631"/>
      <point x="397" y="702"/>
      <point x="285" y="702" type="curve" smooth="yes"/>
      <point x="169" y="702"/>
      <point x="88" y="630"/>
      <point x="88" y="523" type="curve"/>
      <point x="108" y="522" type="line"/>
      <point x="108" y="618"/>
      <point x="179" y="683"/>
      <point x="285" y="683" type="curve" smooth="yes"/>
      <point x="386" y="683"/>
      <point x="460" y="619"/>
      <point x="460" y="531" type="curve" smooth="yes"/>
      <point x="460" y="405"/>
      <point x="334" y="377"/>
      <point x="241" y="378" type="curve"/>
      <point x="241" y="361" type="line"/>
      <point x="361" y="360"/>
      <point x="497" y="328"/>
      <point x="497" y="192" type="curve" smooth="yes"/>
      <point x="497" y="85"/>
      <point x="412" y="14"/>
      <point x="287" y="14" type="curve" smooth="yes"/>
      <point x="157" y="14"/>
      <point x="75" y="85"/>
      <point x="75" y="198" type="curve"/>
      <point x="55" y="197" type="line"/>
      <point x="55" y="74"/>
      <point x="146" y="-5"/>
    </contour>
  </outline>
</glyph>
<glyph name="two.dnom" format="2">
  <advance width="331"/>
  <outline>
    <contour>
      <point x="33" y="0" type="line"/>
      <point x="299" y="0" type="line"/>
      <point x="299" y="17" type="line"/>
      <point x="52" y="17" type="line"/>
      <point x="49" y="15" type="line"/>
      <point x="142" y="87"/>
      <point x="281" y="180"/>
      <point x="281" y="302" type="curve" smooth="yes"/>
      <point x="281" y="375"/>
      <point x="234" y="421"/>
      <point x="162" y="421" type="curve" smooth="yes"/>
      <point x="81" y="421"/>
      <point x="37" y="366"/>
      <point x="37" y="286" type="curve"/>
      <point x="54" y="285" type="line"/>
      <point x="54" y="356"/>
      <point x="89" y="404"/>
      <point x="162" y="404" type="curve" smooth="yes"/>
      <point x="225" y="404"/>
      <point x="264" y="365"/>
      <point x="264" y="301" type="curve" smooth="yes"/>
      <point x="264" y="181"/>
      <point x="115" y="90"/>
      <point x="33" y="20" type="curve"/>
    </contour>
  </outline>
</glyph>
<glyph name="twodotenleader.ss03" format="2">
  <advance width="438"/>
  <outline>
    <contour>
      <point x="313" y="-5" type="curve" smooth="yes"/>
      <point x="327" y="-5"/>
      <point x="338" y="6"/>
      <point x="338" y="19" type="curve" smooth="yes"/>
      <point x="338" y="33"/>
      <point x="326" y="44"/>
      <point x="313" y="44" type="curve" smooth="yes"/>
      <point x="300" y="44"/>
      <point x="289" y="33"/>
      <point x="289" y="19" type="curve" smooth="yes"/>
      <point x="289" y="6"/>
      <point x="300" y="-5"/>
    </contour>
    <contour>
      <point x="125" y="-5" type="curve" smooth="yes"/>
      <point x="138" y="-5"/>
      <point x="149" y="6"/>
      <point x="149" y="19" type="curve" smooth="yes"/>
      <point x="149" y="33"/>
      <point x="138" y="44"/>
      <point x="125" y="44" type="curve" smooth="yes"/>
      <point x="111" y="44"/>
      <point x="100" y="32"/>
      <point x="100" y="19" type="curve" smooth="yes"/>
      <point x="100" y="6"/>
      <point x="111" y="-5"/>
    </contour>
  </outline>
</glyph>
<glyph name="zero.lf" format="2">
  <advance width="540"/>
  <outline>
    <contour>
      <point x="274" y="-5" type="curve" smooth="yes"/>
      <point x="409" y="-5"/>
      <point x="472" y="144"/>
      <point x="472" y="347" type="curve" smooth="yes"/>
      <point x="472" y="552"/>
      <point x="408" y="703"/>
      <point x="268" y="703" type="curve" smooth="yes"/>
      <point x="115" y="703"/>
      <point x="69" y="530"/>
      <point x="69" y="348" type="curve" smooth="yes"/>
      <point x="69" y="169"/>
      <point x="116" y="-5"/>
    </contour>
    <contour>
      <point x="274" y="14" type="curve" smooth="yes"/>
      <point x="134" y="14"/>
      <point x="89" y="172"/>
      <point x="89" y="348" type="curve" smooth="yes"/>
      <point x="89" y="528"/>
      <point x="134" y="684"/>
      <point x="268" y="684" type="curve" smooth="yes"/>
      <point x="391" y="684"/>
      <point x="452" y="549"/>
      <point x="452" y="346" type="curve" smooth="yes"/>
      <point x="452" y="148"/>
      <point x="392" y="14"/>
    </contour>
  </outline>
</glyph>
<glyph name="zero.numr" format="2">
  <advance width="331"/>
  <outline>
    <contour>
      <point x="167" y="275" type="curve" smooth="yes"/>
      <point x="253" y="275"/>
      <point x="289" y="371"/>
      <point x="289" y="487" type="curve" smooth="yes"/>
      <point x="289" y="606"/>
      <point x="252" y="701"/>
      <point x="163" y="701" type="curve" smooth="yes"/>
      <point x="68" y="701"/>
      <point x="42" y="591"/>
      <point x="42" y="488" type="curve" smooth="yes"/>
      <point x="42" y="386"/>
      <point x="69" y="275"/>
    </contour>
    <contour>
      <point x="167" y="293" type="curve" smooth="yes"/>
      <point x="86" y="293"/>
      <point x="59" y="386"/>
      <point x="59" y="488" type="curve" smooth="yes"/>
      <point x="59" y="591"/>
      <point x="86" y="684"/>
      <point x="163" y="684" type="curve" smooth="yes"/>
      <point x="236" y="684"/>
      <point x="270" y="604"/>
      <point x="270" y="486" type="curve" smooth="yes"/>
      <point x="270" y="373"/>
      <point x="237" y="293"/>
    </contour>
  </outline>
</glyph>
